<svg xmlns="http://www.w3.org/2000/svg" xmlns:xlink="http://www.w3.org/1999/xlink" width="500" zoomAndPan="magnify" viewBox="0 0 375 374.999991" height="500" preserveAspectRatio="xMidYMid meet" version="1.0"><defs><g/><clipPath id="fef6963608"><path d="M 75 51 L 129 51 L 129 105 L 75 105 Z M 75 51 " clip-rule="nonzero"/></clipPath><clipPath id="790dd78161"><path d="M 63.613281 75.296875 L 104.671875 40.222656 L 139.742188 81.285156 L 98.683594 116.355469 Z M 63.613281 75.296875 " clip-rule="nonzero"/></clipPath><clipPath id="a51dd88c03"><path d="M 63.613281 75.296875 L 104.671875 40.222656 L 139.742188 81.285156 L 98.683594 116.355469 Z M 63.613281 75.296875 " clip-rule="nonzero"/></clipPath><clipPath id="e74bd3eb4e"><path d="M 63.613281 75.296875 L 104.671875 40.222656 L 139.742188 81.285156 L 98.683594 116.355469 Z M 63.613281 75.296875 " clip-rule="nonzero"/></clipPath><clipPath id="531ed06e82"><path d="M 74 51 L 129 51 L 129 106 L 74 106 Z M 74 51 " clip-rule="nonzero"/></clipPath><clipPath id="9d1157b4fd"><path d="M 63.613281 75.296875 L 104.671875 40.222656 L 139.742188 81.285156 L 98.683594 116.355469 Z M 63.613281 75.296875 " clip-rule="nonzero"/></clipPath><clipPath id="24beca7241"><path d="M 63.613281 75.296875 L 104.671875 40.222656 L 139.742188 81.285156 L 98.683594 116.355469 Z M 63.613281 75.296875 " clip-rule="nonzero"/></clipPath><clipPath id="ea9ae0e6a4"><path d="M 63.613281 75.296875 L 104.671875 40.222656 L 139.742188 81.285156 L 98.683594 116.355469 Z M 63.613281 75.296875 " clip-rule="nonzero"/></clipPath><clipPath id="95bdf07564"><path d="M 84.246094 59.335938 L 108.199219 59.335938 L 108.199219 85.535156 L 84.246094 85.535156 Z M 84.246094 59.335938 " clip-rule="nonzero"/></clipPath><clipPath id="978165a647"><path d="M 96.222656 59.335938 C 89.609375 59.335938 84.246094 65.144531 84.246094 72.3125 C 84.246094 79.476562 89.609375 85.289062 96.222656 85.289062 C 102.839844 85.289062 108.199219 79.476562 108.199219 72.3125 C 108.199219 65.144531 102.839844 59.335938 96.222656 59.335938 " clip-rule="nonzero"/></clipPath></defs><g fill="#000000" fill-opacity="1"><g transform="translate(134.619491, 99.923016)"><g><path d="M -4.617188 5.628906 L -5.433594 6.625 L 1.929688 8 L 1.949219 8.027344 L 2.785156 7.007812 L 2.746094 7.003906 L -0.0351562 0.0429688 L -0.851562 1.039062 L -0.351562 2.285156 L -3.296875 5.875 Z M 0.113281 3.449219 L 1.441406 6.757812 L -2.0625 6.105469 Z M 0.113281 3.449219 "/></g></g></g><g fill="#000000" fill-opacity="1"><g transform="translate(129.413453, 106.31662)"><g><path d="M 2.207031 6.695312 L 3.082031 5.992188 L -1.054688 0.847656 L -6.214844 4.996094 L -5.550781 5.820312 L -1.265625 2.375 Z M 2.207031 6.695312 "/></g></g></g><g fill="#000000" fill-opacity="1"><g transform="translate(123.167749, 111.387823)"><g><path d="M 0.804688 7.003906 L 1.800781 6.492188 L -1.203125 0.617188 L -7.097656 3.632812 L -6.617188 4.574219 L -1.722656 2.066406 Z M 0.804688 7.003906 "/></g></g></g><g fill="#000000" fill-opacity="1"><g transform="translate(116.037866, 115.092508)"><g><path d="M -7.023438 1.917969 L -8.265625 2.257812 L -3.054688 7.640625 L -3.058594 7.675781 L -1.785156 7.328125 L -1.816406 7.300781 L -0.0546875 0.015625 L -1.292969 0.351562 L -1.609375 1.660156 L -6.089844 2.882812 Z M -1.90625 2.878906 L -2.738281 6.34375 L -5.214844 3.785156 Z M -1.90625 2.878906 "/></g></g></g><g fill="#000000" fill-opacity="1"><g transform="translate(108.191091, 117.377745)"><g><path d="M -7.40625 6.898438 L -7.621094 1.546875 L -2.582031 6.707031 L -1.097656 6.648438 L -1.363281 0.0546875 L -2.484375 0.0976562 L -2.269531 5.441406 L -7.285156 0.289062 L -8.792969 0.351562 L -8.527344 6.945312 Z M -7.40625 6.898438 "/></g></g></g><g fill="#000000" fill-opacity="1"><g transform="translate(98.308108, 117.540875)"><g/></g></g><g fill="#000000" fill-opacity="1"><g transform="translate(94.115287, 117.177064)"><g><path d="M -3.03125 3.25 C -3.375 3.144531 -3.6875 2.976562 -3.96875 2.75 C -4.226562 2.519531 -4.441406 2.238281 -4.609375 1.90625 C -4.785156 1.59375 -4.882812 1.257812 -4.90625 0.90625 C -4.9375 0.5625 -4.894531 0.210938 -4.78125 -0.140625 C -4.894531 0.203125 -5.0625 0.503906 -5.28125 0.765625 C -5.5 1.035156 -5.78125 1.257812 -6.125 1.4375 C -6.445312 1.601562 -6.785156 1.707031 -7.140625 1.75 C -7.484375 1.769531 -7.828125 1.726562 -8.171875 1.625 C -7.828125 1.726562 -7.519531 1.894531 -7.25 2.125 C -6.988281 2.363281 -6.773438 2.644531 -6.609375 2.96875 C -6.429688 3.3125 -6.328125 3.65625 -6.296875 4 C -6.265625 4.34375 -6.304688 4.6875 -6.421875 5.03125 C -6.304688 4.675781 -6.132812 4.363281 -5.90625 4.09375 C -5.6875 3.832031 -5.414062 3.613281 -5.09375 3.4375 C -4.757812 3.269531 -4.421875 3.164062 -4.078125 3.125 C -3.722656 3.101562 -3.375 3.144531 -3.03125 3.25 Z M -1.65625 3.6875 C -2.175781 3.519531 -2.710938 3.457031 -3.265625 3.5 C -3.796875 3.550781 -4.3125 3.710938 -4.8125 3.984375 C -5.320312 4.242188 -5.742188 4.578125 -6.078125 4.984375 C -6.421875 5.390625 -6.679688 5.867188 -6.859375 6.421875 C -6.691406 5.878906 -6.628906 5.347656 -6.671875 4.828125 C -6.722656 4.304688 -6.878906 3.78125 -7.140625 3.25 C -7.390625 2.75 -7.722656 2.320312 -8.140625 1.96875 C -8.546875 1.613281 -9.019531 1.351562 -9.5625 1.1875 C -9.019531 1.351562 -8.484375 1.414062 -7.953125 1.375 C -7.398438 1.3125 -6.882812 1.15625 -6.40625 0.90625 C -5.882812 0.632812 -5.453125 0.296875 -5.109375 -0.109375 C -4.765625 -0.523438 -4.507812 -1.003906 -4.34375 -1.546875 C -4.519531 -0.992188 -4.582031 -0.453125 -4.53125 0.078125 C -4.488281 0.609375 -4.335938 1.128906 -4.078125 1.640625 C -3.816406 2.148438 -3.484375 2.570312 -3.078125 2.90625 C -2.648438 3.257812 -2.175781 3.519531 -1.65625 3.6875 Z M -1.65625 3.6875 "/></g></g></g><g fill="#000000" fill-opacity="1"><g transform="translate(85.602684, 114.294524)"><g/></g></g><g fill="#000000" fill-opacity="1"><g transform="translate(81.77566, 112.851502)"><g><path d="M -12.921875 -1.972656 L -11.683594 -0.96875 L -5.589844 -3.109375 L -6.453125 3.265625 L -5.210938 4.269531 L -1.058594 -0.859375 L -1.933594 -1.5625 L -5.207031 2.480469 L -4.398438 -3.535156 L -4.367188 -3.535156 L -5.417969 -4.386719 L -5.425781 -4.363281 L -11.1875 -2.335938 L -7.898438 -6.394531 L -8.769531 -7.101562 Z M -12.921875 -1.972656 "/></g></g></g><g fill="#000000" fill-opacity="1"><g transform="translate(72.50042, 105.288768)"><g><path d="M -2.980469 -4.4375 C -4.964844 -7.265625 -6.894531 -7.148438 -8.175781 -6.25 L -8.570312 -5.972656 C -9.921875 -5.023438 -10.511719 -3.242188 -8.589844 -0.503906 C -6.636719 2.277344 -4.738281 2.25 -3.40625 1.3125 L -3.007812 1.035156 C -1.703125 0.121094 -1.027344 -1.65625 -2.980469 -4.4375 Z M -3.878906 -3.808594 C -2.507812 -1.851562 -2.710938 -0.570312 -3.664062 0.0976562 L -4.0625 0.378906 C -5.042969 1.066406 -6.316406 0.820312 -7.6875 -1.136719 C -9.015625 -3.027344 -8.785156 -4.421875 -7.789062 -5.125 L -7.390625 -5.402344 C -6.480469 -6.039062 -5.289062 -5.816406 -3.878906 -3.808594 Z M -3.878906 -3.808594 "/></g></g></g><g fill="#000000" fill-opacity="1"><g transform="translate(66.665484, 96.984101)"><g><path d="M -6.933594 -5.59375 L -7.335938 -6.640625 C -8.875 -6.050781 -8.882812 -4.445312 -8.035156 -2.238281 C -7.03125 0.378906 -5.964844 1.339844 -4.835938 0.902344 L -4.753906 0.871094 C -3.367188 0.339844 -3.613281 -0.851562 -4.304688 -3.414062 C -5.085938 -6.1875 -4.722656 -6.339844 -4.558594 -6.402344 L -4.433594 -6.449219 C -3.714844 -6.726562 -3.0625 -5.210938 -2.625 -4.070312 C -1.953125 -2.324219 -2.105469 -1.335938 -2.84375 -1.050781 L -2.441406 -0.00390625 C -1.066406 -0.535156 -0.671875 -2.050781 -1.597656 -4.464844 C -2.589844 -7.042969 -3.523438 -8.035156 -4.878906 -7.515625 L -4.980469 -7.476562 C -6.378906 -6.941406 -6.042969 -5.488281 -5.363281 -3.074219 C -4.617188 -0.429688 -4.933594 -0.296875 -5.179688 -0.203125 L -5.273438 -0.164062 C -5.765625 0.0234375 -6.449219 -1.175781 -7.007812 -2.632812 C -7.570312 -4.089844 -7.722656 -5.292969 -6.933594 -5.59375 Z M -6.933594 -5.59375 "/></g></g></g><g fill="#000000" fill-opacity="1"><g transform="translate(63.336448, 88.352799)"><g><path d="M -6.714844 -7.445312 L -7.703125 -7.300781 L -6.726562 -0.421875 L -0.191406 -1.351562 L -1.171875 -8.230469 L -2.164062 -8.089844 L -1.339844 -2.320312 L -3.039062 -2.078125 L -3.765625 -7.175781 L -4.753906 -7.035156 L -4.03125 -1.9375 L -5.894531 -1.671875 Z M -6.714844 -7.445312 "/></g></g></g><g fill="#000000" fill-opacity="1"><g transform="translate(62.042813, 79.916632)"><g><path d="M -3.800781 -8.058594 L -3.707031 -9.175781 C -5.351562 -9.316406 -6.058594 -7.875 -6.257812 -5.515625 C -6.492188 -2.722656 -5.953125 -1.398438 -4.746094 -1.292969 L -4.660156 -1.289062 C -3.179688 -1.164062 -2.882812 -2.339844 -2.386719 -4.949219 C -1.882812 -7.785156 -1.484375 -7.761719 -1.3125 -7.75 L -1.179688 -7.738281 C -0.410156 -7.671875 -0.484375 -6.023438 -0.585938 -4.808594 C -0.746094 -2.945312 -1.3125 -2.121094 -2.101562 -2.1875 L -2.195312 -1.066406 C -0.726562 -0.945312 0.289062 -2.140625 0.507812 -4.714844 C 0.742188 -7.464844 0.332031 -8.769531 -1.113281 -8.890625 L -1.222656 -8.902344 C -2.714844 -9.027344 -3.046875 -7.574219 -3.488281 -5.105469 C -3.96875 -2.398438 -4.308594 -2.417969 -4.574219 -2.4375 L -4.671875 -2.449219 C -5.199219 -2.492188 -5.292969 -3.867188 -5.160156 -5.425781 C -5.027344 -6.980469 -4.644531 -8.128906 -3.800781 -8.058594 Z M -3.800781 -8.058594 "/></g></g></g><g fill="#000000" fill-opacity="1"><g transform="translate(63.04537, 70.51359)"><g/></g></g><g fill="#000000" fill-opacity="1"><g transform="translate(63.904068, 66.393272)"><g><path d="M -2.859375 -3.40625 C -2.710938 -3.726562 -2.507812 -4.015625 -2.25 -4.265625 C -2 -4.492188 -1.703125 -4.671875 -1.359375 -4.796875 C -1.015625 -4.941406 -0.664062 -5.003906 -0.3125 -4.984375 C 0.03125 -4.972656 0.367188 -4.894531 0.703125 -4.75 C 0.378906 -4.894531 0.101562 -5.09375 -0.125 -5.34375 C -0.363281 -5.59375 -0.554688 -5.894531 -0.703125 -6.25 C -0.828125 -6.582031 -0.882812 -6.929688 -0.875 -7.296875 C -0.863281 -7.640625 -0.785156 -7.976562 -0.640625 -8.3125 C -0.785156 -7.976562 -0.988281 -7.691406 -1.25 -7.453125 C -1.519531 -7.210938 -1.820312 -7.03125 -2.15625 -6.90625 C -2.519531 -6.78125 -2.875 -6.722656 -3.21875 -6.734375 C -3.5625 -6.742188 -3.898438 -6.828125 -4.234375 -6.984375 C -3.890625 -6.828125 -3.597656 -6.617188 -3.359375 -6.359375 C -3.117188 -6.109375 -2.9375 -5.804688 -2.8125 -5.453125 C -2.6875 -5.117188 -2.625 -4.773438 -2.625 -4.421875 C -2.632812 -4.066406 -2.710938 -3.726562 -2.859375 -3.40625 Z M -3.46875 -2.078125 C -3.238281 -2.585938 -3.113281 -3.113281 -3.09375 -3.65625 C -3.09375 -4.175781 -3.1875 -4.710938 -3.375 -5.265625 C -3.570312 -5.785156 -3.851562 -6.238281 -4.21875 -6.625 C -4.582031 -7.019531 -5.023438 -7.335938 -5.546875 -7.578125 C -5.035156 -7.347656 -4.519531 -7.21875 -4 -7.1875 C -3.476562 -7.164062 -2.9375 -7.265625 -2.375 -7.484375 C -1.851562 -7.671875 -1.390625 -7.945312 -0.984375 -8.3125 C -0.585938 -8.6875 -0.273438 -9.128906 -0.046875 -9.640625 C -0.273438 -9.128906 -0.398438 -8.601562 -0.421875 -8.0625 C -0.429688 -7.507812 -0.332031 -6.972656 -0.125 -6.453125 C 0.0703125 -5.898438 0.351562 -5.429688 0.71875 -5.046875 C 1.09375 -4.671875 1.535156 -4.367188 2.046875 -4.140625 C 1.523438 -4.378906 0.992188 -4.503906 0.453125 -4.515625 C -0.078125 -4.535156 -0.601562 -4.441406 -1.125 -4.234375 C -1.6875 -4.035156 -2.15625 -3.757812 -2.53125 -3.40625 C -2.925781 -3.03125 -3.238281 -2.585938 -3.46875 -2.078125 Z M -3.46875 -2.078125 "/></g></g></g><g fill="#000000" fill-opacity="1"><g transform="translate(67.77672, 58.283263)"><g/></g></g><g fill="#000000" fill-opacity="1"><g transform="translate(69.994713, 54.672193)"><g><path d="M 1.59375 -9.894531 L 0.863281 -10.582031 L -3.886719 -5.503906 L 0.933594 -0.996094 L 1.699219 -1.816406 L -0.253906 -3.640625 L 3.265625 -7.398438 L 2.535156 -8.082031 L -0.984375 -4.324219 L -2.386719 -5.640625 Z M 1.59375 -9.894531 "/></g></g></g><g fill="#000000" fill-opacity="1"><g transform="translate(75.490835, 48.701291)"><g><path d="M 3.640625 -9.339844 L 3.070312 -10.160156 L -2.640625 -6.199219 L 1.121094 -0.777344 L 6.832031 -4.738281 L 6.261719 -5.5625 L 1.472656 -2.238281 L 0.492188 -3.648438 L 4.722656 -6.582031 L 4.152344 -7.40625 L -0.078125 -4.472656 L -1.148438 -6.015625 Z M 3.640625 -9.339844 "/></g></g></g><g fill="#000000" fill-opacity="1"><g transform="translate(82.429603, 43.750888)"><g><path d="M 6.800781 -7.726562 L 6.757812 -7.839844 C 6.320312 -8.945312 5.378906 -9.234375 4.179688 -8.757812 L -1.167969 -6.636719 L 1.269531 -0.503906 L 2.382812 -0.945312 L 1.441406 -3.316406 L 5.246094 -4.824219 C 6.277344 -5.234375 6.527344 -4.601562 6.71875 -4.121094 L 6.992188 -3.4375 C 7.0625 -3.253906 7.15625 -3.050781 7.257812 -2.878906 L 8.453125 -3.355469 C 8.351562 -3.527344 8.25 -3.722656 8.160156 -3.949219 L 7.871094 -4.671875 C 7.621094 -5.308594 7.144531 -5.757812 6.421875 -5.851562 C 6.933594 -6.265625 7.15625 -6.839844 6.800781 -7.726562 Z M 1.007812 -4.410156 L 0.355469 -6.058594 L 4.585938 -7.734375 C 5.28125 -8.011719 5.578125 -7.714844 5.695312 -7.417969 L 5.738281 -7.304688 C 5.929688 -6.824219 5.824219 -6.320312 5.238281 -6.089844 Z M 1.007812 -4.410156 "/></g></g></g><g fill="#000000" fill-opacity="1"><g transform="translate(91.210843, 40.187747)"><g><path d="M 6.714844 -7.574219 L 7.4375 -2.269531 L 1.929688 -6.921875 L 0.460938 -6.722656 L 1.351562 -0.183594 L 2.464844 -0.335938 L 1.742188 -5.632812 L 7.226562 -0.984375 L 8.71875 -1.1875 L 7.828125 -7.726562 Z M 6.714844 -7.574219 "/></g></g></g><g fill="#000000" fill-opacity="1"><g transform="translate(100.819645, 38.912483)"><g><path d="M 7.25 0.660156 L 8.53125 0.777344 L 5.535156 -6.089844 L 5.550781 -6.121094 L 4.238281 -6.238281 L 4.253906 -6.207031 L 0.0546875 0.00390625 L 1.335938 0.121094 L 2.089844 -0.992188 L 6.710938 -0.570312 Z M 2.792969 -2.03125 L 4.785156 -4.984375 L 6.210938 -1.71875 Z M 2.792969 -2.03125 "/></g></g></g><g fill="#000000" fill-opacity="1"><g transform="translate(108.970525, 39.516167)"><g><path d="M 9.355469 -3.871094 L 7.679688 1.214844 L 4.765625 -5.378906 L 3.355469 -5.84375 L 1.296875 0.425781 L 2.363281 0.777344 L 4.03125 -4.300781 L 6.925781 2.277344 L 8.359375 2.746094 L 10.417969 -3.523438 Z M 9.355469 -3.871094 "/></g></g></g><g fill="#000000" fill-opacity="1"><g transform="translate(118.136825, 42.430645)"><g><path d="M 7.960938 -2.757812 L 4.691406 -4.835938 L 1.152344 0.730469 L 4.417969 2.808594 C 7.859375 5 8.933594 4.027344 9.769531 2.71875 L 10.027344 2.308594 C 10.890625 0.953125 11.402344 -0.570312 7.960938 -2.757812 Z M 8.800781 2.105469 C 8.21875 3.023438 7.691406 3.585938 5.007812 1.882812 L 2.6875 0.40625 L 5.046875 -3.304688 L 7.367188 -1.832031 C 9.941406 -0.195312 9.695312 0.703125 9.0625 1.695312 Z M 8.800781 2.105469 "/></g></g></g><g fill="#000000" fill-opacity="1"><g transform="translate(126.618666, 47.864363)"><g><path d="M 9.804688 2.082031 L 10.523438 1.386719 L 5.691406 -3.609375 L 0.949219 0.980469 L 5.78125 5.976562 L 6.5 5.28125 L 2.449219 1.089844 L 3.679688 -0.101562 L 7.261719 3.597656 L 7.980469 2.902344 L 4.398438 -0.796875 L 5.75 -2.105469 Z M 9.804688 2.082031 "/></g></g></g><g fill="#000000" fill-opacity="1"><g transform="translate(132.619543, 53.932582)"><g><path d="M 7.808594 4.289062 L 8.390625 5.25 C 9.800781 4.398438 9.527344 2.816406 8.304688 0.792969 C 6.855469 -1.609375 5.636719 -2.363281 4.601562 -1.738281 L 4.527344 -1.695312 C 3.257812 -0.925781 3.707031 0.203125 4.835938 2.605469 C 6.09375 5.199219 5.761719 5.410156 5.609375 5.503906 L 5.5 5.570312 C 4.839844 5.96875 3.929688 4.589844 3.296875 3.546875 C 2.332031 1.945312 2.304688 0.945312 2.984375 0.535156 L 2.402344 -0.425781 C 1.140625 0.339844 1.019531 1.902344 2.355469 4.113281 C 3.785156 6.476562 4.878906 7.292969 6.125 6.542969 L 6.21875 6.484375 C 7.496094 5.710938 6.914062 4.34375 5.820312 2.085938 C 4.621094 -0.390625 4.910156 -0.574219 5.132812 -0.710938 L 5.21875 -0.761719 C 5.671875 -1.035156 6.554688 0.0234375 7.363281 1.359375 C 8.171875 2.699219 8.535156 3.851562 7.808594 4.289062 Z M 7.808594 4.289062 "/></g></g></g><g fill="#000000" fill-opacity="1"><g transform="translate(137.329787, 62.134715)"><g/></g></g><g fill="#000000" fill-opacity="1"><g transform="translate(139.054182, 65.973637)"><g><path d="M 4.328125 1.0625 C 4.398438 1.414062 4.398438 1.769531 4.328125 2.125 C 4.253906 2.46875 4.117188 2.789062 3.921875 3.09375 C 3.710938 3.40625 3.46875 3.65625 3.1875 3.84375 C 2.90625 4.039062 2.578125 4.175781 2.203125 4.25 C 2.566406 4.175781 2.910156 4.171875 3.234375 4.234375 C 3.566406 4.296875 3.90625 4.4375 4.25 4.65625 C 4.539062 4.84375 4.789062 5.085938 5 5.390625 C 5.195312 5.671875 5.332031 5.988281 5.40625 6.34375 C 5.332031 5.988281 5.328125 5.644531 5.390625 5.3125 C 5.460938 4.945312 5.601562 4.617188 5.8125 4.328125 C 6.019531 4.003906 6.265625 3.742188 6.546875 3.546875 C 6.835938 3.359375 7.160156 3.226562 7.515625 3.15625 C 7.148438 3.238281 6.796875 3.242188 6.453125 3.171875 C 6.109375 3.109375 5.785156 2.972656 5.484375 2.765625 C 5.171875 2.566406 4.914062 2.328125 4.71875 2.046875 C 4.53125 1.742188 4.398438 1.414062 4.328125 1.0625 Z M 4.03125 -0.359375 C 4.144531 0.179688 4.351562 0.679688 4.65625 1.140625 C 4.957031 1.566406 5.347656 1.941406 5.828125 2.265625 C 6.285156 2.585938 6.773438 2.796875 7.296875 2.890625 C 7.828125 2.992188 8.375 2.988281 8.9375 2.875 C 8.382812 2.976562 7.890625 3.175781 7.453125 3.46875 C 7.023438 3.757812 6.644531 4.148438 6.3125 4.640625 C 6 5.109375 5.785156 5.613281 5.671875 6.15625 C 5.578125 6.6875 5.585938 7.226562 5.703125 7.78125 C 5.585938 7.226562 5.375 6.726562 5.0625 6.28125 C 4.75 5.832031 4.359375 5.453125 3.890625 5.140625 C 3.398438 4.816406 2.894531 4.609375 2.375 4.515625 C 1.851562 4.421875 1.316406 4.429688 0.765625 4.546875 C 1.328125 4.429688 1.828125 4.222656 2.265625 3.921875 C 2.710938 3.628906 3.09375 3.242188 3.40625 2.765625 C 3.738281 2.273438 3.953125 1.773438 4.046875 1.265625 C 4.148438 0.722656 4.144531 0.179688 4.03125 -0.359375 Z M 4.03125 -0.359375 "/></g></g></g><g clip-path="url(#fef6963608)"><g clip-path="url(#790dd78161)"><g clip-path="url(#a51dd88c03)"><g clip-path="url(#e74bd3eb4e)"><path fill="#ffffff" d="M 118.863281 98.410156 C 107.753906 107.902344 91.050781 106.585938 81.558594 95.476562 C 72.066406 84.363281 73.382812 67.660156 84.492188 58.167969 C 95.605469 48.679688 112.308594 49.992188 121.800781 61.105469 C 131.292969 72.21875 129.976562 88.917969 118.863281 98.410156 Z M 118.863281 98.410156 " fill-opacity="1" fill-rule="nonzero"/></g></g></g></g><g clip-path="url(#531ed06e82)"><g clip-path="url(#9d1157b4fd)"><g clip-path="url(#24beca7241)"><g clip-path="url(#ea9ae0e6a4)"><path fill="#545454" d="M 119.214844 98.820312 C 116.445312 101.1875 113.292969 102.941406 109.84375 104.035156 C 106.515625 105.085938 103.054688 105.484375 99.5625 105.207031 C 96.066406 104.933594 92.710938 104 89.585938 102.441406 C 86.355469 100.824219 83.515625 98.597656 81.148438 95.828125 C 78.78125 93.054688 77.027344 89.902344 75.9375 86.457031 C 74.882812 83.128906 74.488281 79.667969 74.761719 76.171875 C 75.035156 72.675781 75.96875 69.320312 77.53125 66.199219 C 79.144531 62.964844 81.371094 60.125 84.144531 57.757812 C 86.914062 55.390625 90.066406 53.636719 93.515625 52.546875 C 96.84375 51.492188 100.300781 51.097656 103.796875 51.371094 C 107.292969 51.648438 110.648438 52.578125 113.769531 54.140625 C 117.003906 55.757812 119.84375 57.984375 122.210938 60.753906 C 124.578125 63.523438 126.332031 66.675781 127.421875 70.125 C 128.476562 73.453125 128.875 76.914062 128.597656 80.410156 C 128.324219 83.902344 127.390625 87.257812 125.828125 90.382812 C 124.210938 93.617188 121.988281 96.453125 119.214844 98.820312 Z M 84.84375 58.578125 C 82.183594 60.851562 80.046875 63.578125 78.496094 66.683594 C 76.996094 69.679688 76.101562 72.902344 75.835938 76.257812 C 75.574219 79.617188 75.953125 82.9375 76.964844 86.132812 C 78.011719 89.4375 79.695312 92.464844 81.96875 95.128906 C 84.242188 97.789062 86.96875 99.925781 90.070312 101.476562 C 93.070312 102.976562 96.289062 103.871094 99.648438 104.136719 C 103.003906 104.398438 106.324219 104.019531 109.519531 103.007812 C 112.828125 101.960938 115.855469 100.277344 118.515625 98.003906 C 121.179688 95.730469 123.3125 93.003906 124.867188 89.902344 C 126.363281 86.902344 127.261719 83.683594 127.523438 80.324219 C 127.789062 76.96875 127.410156 73.648438 126.398438 70.449219 C 125.347656 67.144531 123.664062 64.117188 121.390625 61.457031 C 119.121094 58.792969 116.394531 56.65625 113.289062 55.105469 C 110.292969 53.605469 107.070312 52.710938 103.714844 52.449219 C 100.355469 52.183594 97.035156 52.5625 93.839844 53.574219 C 90.53125 54.625 87.503906 56.308594 84.84375 58.578125 Z M 87.492188 71.753906 C 86.5 72.601562 87.589844 75.507812 89.929688 78.246094 C 92.265625 80.980469 94.964844 82.515625 95.957031 81.667969 C 96.949219 80.816406 95.859375 77.914062 93.519531 75.175781 C 91.183594 72.4375 88.484375 70.90625 87.492188 71.753906 Z M 97.441406 63.253906 C 96.449219 64.101562 97.539062 67.007812 99.878906 69.746094 C 102.214844 72.484375 104.914062 74.015625 105.90625 73.167969 C 106.898438 72.320312 105.808594 69.414062 103.472656 66.675781 C 101.132812 63.941406 98.433594 62.40625 97.441406 63.253906 Z M 117.613281 68.257812 C 114.550781 67.34375 113.765625 69.679688 113.765625 69.679688 C 113.617188 70.058594 113.753906 70.273438 113.925781 70.394531 C 114.097656 70.511719 114.320312 70.535156 114.515625 70.472656 C 114.871094 70.359375 115.1875 70.246094 115.472656 70.136719 C 116.5 71.4375 117.234375 72.925781 117.652344 74.566406 C 118.097656 76.304688 118.175781 78.140625 117.886719 80.027344 C 117.597656 81.921875 116.949219 83.765625 115.960938 85.511719 C 114.9375 87.320312 113.59375 88.945312 111.964844 90.335938 C 110.335938 91.726562 108.523438 92.800781 106.574219 93.527344 C 104.695312 94.230469 102.769531 94.582031 100.855469 94.574219 C 98.949219 94.5625 97.144531 94.199219 95.5 93.488281 C 94.007812 92.84375 92.703125 91.941406 91.609375 90.796875 C 92.039062 90.347656 92.34375 89.960938 92.285156 89.820312 C 92.09375 89.335938 90.890625 88.660156 89.070312 91.132812 C 89.070312 91.132812 88.535156 92.128906 89.203125 92.644531 C 89.332031 92.746094 89.515625 92.734375 89.644531 92.628906 C 89.902344 92.40625 90.367188 91.996094 90.839844 91.554688 C 92.03125 92.796875 93.453125 93.777344 95.070312 94.476562 C 96.851562 95.246094 98.796875 95.644531 100.851562 95.652344 C 102.898438 95.660156 104.949219 95.285156 106.949219 94.539062 C 109.015625 93.769531 110.941406 92.628906 112.664062 91.15625 C 114.390625 89.683594 115.816406 87.960938 116.902344 86.039062 C 117.949219 84.179688 118.640625 82.210938 118.953125 80.191406 C 119.265625 78.160156 119.179688 76.179688 118.695312 74.296875 C 118.261719 72.605469 117.523438 71.0625 116.496094 69.699219 C 117.300781 69.304688 117.648438 68.980469 117.796875 68.746094 C 117.914062 68.5625 117.816406 68.320312 117.613281 68.257812 Z M 117.613281 68.257812 " fill-opacity="1" fill-rule="nonzero"/></g></g></g></g><g clip-path="url(#95bdf07564)"><g clip-path="url(#978165a647)"><path fill="#ffffff" d="M 84.246094 59.335938 L 108.199219 59.335938 L 108.199219 85.160156 L 84.246094 85.160156 Z M 84.246094 59.335938 " fill-opacity="1" fill-rule="nonzero"/></g></g><g fill="#545454" fill-opacity="1"><g transform="translate(90.075755, 85.301584)"><g><path d="M -0.0078125 0.0078125 L 2.800781 -2.800781 L 2.230469 -4.101562 L 4.917969 -6.792969 L 6.222656 -6.222656 L 9.039062 -9.039062 L 0.0078125 -12.265625 L -3.140625 -9.117188 Z M 1.242188 -6.007812 L -0.0078125 -9.03125 L 0.0078125 -9.046875 L 3.011719 -7.78125 Z M 1.242188 -6.007812 "/></g></g></g><g fill="#545454" fill-opacity="1"><g transform="translate(99.539058, 75.838281)"><g/></g></g><g fill="#545454" fill-opacity="1"><g transform="translate(101.75178, 73.62556)"><g><path d="M 0.425781 -0.425781 L 3.148438 -3.148438 L 1.191406 -5.105469 L 4.679688 -8.597656 L 3.191406 -10.085938 L -0.296875 -6.597656 L -1.105469 -7.40625 L 2.894531 -11.40625 L 1.019531 -13.277344 L -5.703125 -6.554688 Z M 0.425781 -0.425781 "/></g></g></g></svg>