<svg xmlns="http://www.w3.org/2000/svg" xmlns:xlink="http://www.w3.org/1999/xlink" width="500" zoomAndPan="magnify" fill="#ffffff" viewBox="0 0 375 374.999991" height="500" preserveAspectRatio="xMidYMid meet" version="1.0"><defs><g/></defs><g fill="#ffffff" fill-opacity="1"><g transform="translate(87.799723, 68.715282)"><g><path d="M -3.109375 6.582031 L -3.660156 7.746094 L 3.820312 7.289062 L 3.84375 7.3125 L 4.40625 6.121094 L 4.367188 6.125 L -0.0234375 0.0507812 L -0.574219 1.214844 L 0.214844 2.300781 L -1.769531 6.5 Z M 0.949219 3.320312 L 3.042969 6.203125 L -0.515625 6.421875 Z M 0.949219 3.320312 "/></g></g></g><g fill="#ffffff" fill-opacity="1"><g transform="translate(84.304335, 76.182775)"><g><path d="M 3.769531 5.957031 L 4.445312 5.0625 L -0.816406 1.078125 L -4.8125 6.359375 L -3.972656 6.996094 L -0.652344 2.609375 Z M 3.769531 5.957031 "/></g></g></g><g fill="#ffffff" fill-opacity="1"><g transform="translate(79.478971, 82.620303)"><g><path d="M 2.480469 6.597656 L 3.328125 5.859375 L -1.019531 0.890625 L -6.003906 5.25 L -5.308594 6.042969 L -1.167969 2.425781 Z M 2.480469 6.597656 "/></g></g></g><g fill="#ffffff" fill-opacity="1"><g transform="translate(73.463725, 87.947278)"><g><path d="M -6.347656 3.566406 L -7.46875 4.199219 L -1.105469 8.15625 L -1.101562 8.1875 L 0.0507812 7.542969 L 0.015625 7.523438 L -0.046875 0.0273438 L -1.167969 0.65625 L -1.160156 2 L -5.207031 4.273438 Z M -1.148438 3.257812 L -1.113281 6.820312 L -4.140625 4.9375 Z M -1.148438 3.257812 "/></g></g></g><g fill="#ffffff" fill-opacity="1"><g transform="translate(66.407987, 92.071704)"><g><path d="M -5.507812 8.496094 L -7.015625 3.355469 L -0.875 7.132812 L 0.550781 6.714844 L -1.308594 0.382812 L -2.386719 0.699219 L -0.878906 5.828125 L -6.996094 2.054688 L -8.441406 2.476562 L -6.585938 8.808594 Z M -5.507812 8.496094 "/></g></g></g><g fill="#ffffff" fill-opacity="1"><g transform="translate(56.861209, 94.632741)"><g/></g></g><g fill="#ffffff" fill-opacity="1"><g transform="translate(52.705741, 95.299259)"><g><path d="M -2.171875 3.90625 C -2.523438 3.875 -2.863281 3.785156 -3.1875 3.640625 C -3.488281 3.484375 -3.757812 3.265625 -4 2.984375 C -4.257812 2.710938 -4.441406 2.410156 -4.546875 2.078125 C -4.648438 1.753906 -4.691406 1.40625 -4.671875 1.03125 C -4.691406 1.394531 -4.773438 1.726562 -4.921875 2.03125 C -5.078125 2.34375 -5.296875 2.628906 -5.578125 2.890625 C -5.847656 3.140625 -6.15625 3.320312 -6.5 3.4375 C -6.832031 3.550781 -7.179688 3.597656 -7.546875 3.578125 C -7.179688 3.597656 -6.835938 3.6875 -6.515625 3.84375 C -6.191406 4 -5.914062 4.207031 -5.6875 4.46875 C -5.425781 4.769531 -5.238281 5.082031 -5.125 5.40625 C -5.019531 5.726562 -4.976562 6.070312 -5 6.4375 C -4.976562 6.0625 -4.894531 5.71875 -4.75 5.40625 C -4.601562 5.09375 -4.390625 4.8125 -4.109375 4.5625 C -3.828125 4.320312 -3.523438 4.148438 -3.203125 4.046875 C -2.867188 3.921875 -2.523438 3.875 -2.171875 3.90625 Z M -0.71875 3.984375 C -1.269531 3.953125 -1.804688 4.019531 -2.328125 4.1875 C -2.816406 4.363281 -3.273438 4.644531 -3.703125 5.03125 C -4.140625 5.394531 -4.46875 5.816406 -4.6875 6.296875 C -4.914062 6.785156 -5.050781 7.316406 -5.09375 7.890625 C -5.050781 7.328125 -5.113281 6.796875 -5.28125 6.296875 C -5.457031 5.804688 -5.738281 5.332031 -6.125 4.875 C -6.488281 4.457031 -6.921875 4.125 -7.421875 3.875 C -7.910156 3.644531 -8.4375 3.515625 -9 3.484375 C -8.4375 3.515625 -7.894531 3.441406 -7.375 3.265625 C -6.851562 3.078125 -6.390625 2.796875 -5.984375 2.421875 C -5.535156 2.035156 -5.195312 1.601562 -4.96875 1.125 C -4.75 0.644531 -4.617188 0.125 -4.578125 -0.4375 C -4.617188 0.132812 -4.550781 0.671875 -4.375 1.171875 C -4.207031 1.679688 -3.9375 2.148438 -3.5625 2.578125 C -3.175781 3.015625 -2.75 3.347656 -2.28125 3.578125 C -1.789062 3.816406 -1.269531 3.953125 -0.71875 3.984375 Z M -0.71875 3.984375 "/></g></g></g><g fill="#ffffff" fill-opacity="1"><g transform="translate(43.747739, 94.572809)"><g/></g></g><g fill="#ffffff" fill-opacity="1"><g transform="translate(39.684714, 94.103554)"><g><path d="M -13.015625 1.230469 L -11.570312 1.902344 L -6.179688 -1.660156 L -5.464844 4.738281 L -4.019531 5.410156 L -1.238281 -0.574219 L -2.253906 -1.046875 L -4.445312 3.671875 L -5.125 -2.359375 L -5.097656 -2.367188 L -6.324219 -2.9375 L -6.324219 -2.914062 L -11.417969 0.457031 L -9.214844 -4.28125 L -10.234375 -4.753906 Z M -13.015625 1.230469 "/></g></g></g><g fill="#ffffff" fill-opacity="1"><g transform="translate(28.849085, 89.02277)"><g><path d="M -3.96875 -3.582031 C -6.582031 -5.839844 -8.425781 -5.257812 -9.449219 -4.074219 L -9.765625 -3.707031 C -10.84375 -2.460938 -10.980469 -0.589844 -8.453125 1.601562 C -5.882812 3.824219 -4.046875 3.332031 -2.984375 2.101562 L -2.667969 1.734375 C -1.621094 0.53125 -1.398438 -1.355469 -3.96875 -3.582031 Z M -4.691406 -2.75 C -2.886719 -1.1875 -2.769531 0.105469 -3.53125 0.988281 L -3.847656 1.355469 C -4.632812 2.261719 -5.929688 2.332031 -7.734375 0.769531 C -9.480469 -0.742188 -9.597656 -2.152344 -8.800781 -3.078125 L -8.484375 -3.441406 C -7.753906 -4.28125 -6.542969 -4.355469 -4.691406 -2.75 Z M -4.691406 -2.75 "/></g></g></g><g fill="#ffffff" fill-opacity="1"><g transform="translate(21.17015, 82.385919)"><g><path d="M -8.085938 -3.742188 L -8.730469 -4.660156 C -10.082031 -3.710938 -9.699219 -2.152344 -8.339844 -0.21875 C -6.726562 2.078125 -5.460938 2.75 -4.472656 2.054688 L -4.398438 2.003906 C -3.183594 1.148438 -3.710938 0.0546875 -5.003906 -2.265625 C -6.4375 -4.765625 -6.121094 -5 -5.976562 -5.101562 L -5.871094 -5.179688 C -5.238281 -5.621094 -4.238281 -4.308594 -3.535156 -3.308594 C -2.460938 -1.78125 -2.367188 -0.785156 -3.015625 -0.328125 L -2.367188 0.589844 C -1.164062 -0.257812 -1.148438 -1.828125 -2.636719 -3.941406 C -4.222656 -6.199219 -5.371094 -6.9375 -6.558594 -6.105469 L -6.648438 -6.039062 C -7.875 -5.179688 -7.199219 -3.855469 -5.953125 -1.679688 C -4.585938 0.707031 -4.855469 0.914062 -5.074219 1.0625 L -5.152344 1.121094 C -5.585938 1.425781 -6.539062 0.429688 -7.4375 -0.847656 C -8.335938 -2.128906 -8.777344 -3.253906 -8.085938 -3.742188 Z M -8.085938 -3.742188 "/></g></g></g><g fill="#ffffff" fill-opacity="1"><g transform="translate(15.842517, 74.822991)"><g><path d="M -8.320312 -5.589844 L -9.25 -5.210938 L -6.625 1.226562 L -0.515625 -1.261719 L -3.136719 -7.699219 L -4.0625 -7.324219 L -1.863281 -1.925781 L -3.453125 -1.277344 L -5.394531 -6.042969 L -6.324219 -5.667969 L -4.378906 -0.898438 L -6.121094 -0.191406 Z M -8.320312 -5.589844 "/></g></g></g><g fill="#ffffff" fill-opacity="1"><g transform="translate(12.53665, 66.954444)"><g><path d="M -5.644531 -6.890625 L -5.828125 -8 C -7.453125 -7.734375 -7.789062 -6.164062 -7.410156 -3.832031 C -6.960938 -1.0625 -6.113281 0.09375 -4.917969 -0.101562 L -4.832031 -0.117188 C -3.367188 -0.355469 -3.363281 -1.570312 -3.515625 -4.21875 C -3.71875 -7.09375 -3.328125 -7.167969 -3.15625 -7.199219 L -3.023438 -7.21875 C -2.265625 -7.34375 -1.933594 -5.726562 -1.738281 -4.519531 C -1.4375 -2.675781 -1.789062 -1.738281 -2.570312 -1.609375 L -2.386719 -0.503906 C -0.933594 -0.738281 -0.238281 -2.144531 -0.652344 -4.695312 C -1.097656 -7.421875 -1.808594 -8.585938 -3.242188 -8.351562 L -3.351562 -8.335938 C -4.828125 -8.09375 -4.796875 -6.605469 -4.625 -4.105469 C -4.433594 -1.363281 -4.769531 -1.296875 -5.027344 -1.253906 L -5.128906 -1.238281 C -5.648438 -1.152344 -6.074219 -2.464844 -6.324219 -4.007812 C -6.574219 -5.550781 -6.480469 -6.757812 -5.644531 -6.890625 Z M -5.644531 -6.890625 "/></g></g></g><g fill="#ffffff" fill-opacity="1"><g transform="translate(11.223005, 57.589803)"><g/></g></g><g fill="#ffffff" fill-opacity="1"><g transform="translate(11.054188, 53.384325)"><g><path d="M -3.609375 -2.609375 C -3.546875 -2.953125 -3.414062 -3.28125 -3.21875 -3.59375 C -3.03125 -3.863281 -2.785156 -4.109375 -2.484375 -4.328125 C -2.179688 -4.546875 -1.859375 -4.6875 -1.515625 -4.75 C -1.179688 -4.820312 -0.832031 -4.828125 -0.46875 -4.765625 C -0.820312 -4.828125 -1.140625 -4.953125 -1.421875 -5.140625 C -1.710938 -5.328125 -1.972656 -5.578125 -2.203125 -5.890625 C -2.410156 -6.179688 -2.550781 -6.507812 -2.625 -6.875 C -2.707031 -7.207031 -2.710938 -7.550781 -2.640625 -7.90625 C -2.710938 -7.550781 -2.84375 -7.226562 -3.03125 -6.9375 C -3.226562 -6.632812 -3.472656 -6.378906 -3.765625 -6.171875 C -4.097656 -5.960938 -4.429688 -5.820312 -4.765625 -5.75 C -5.097656 -5.675781 -5.441406 -5.671875 -5.796875 -5.734375 C -5.429688 -5.671875 -5.101562 -5.546875 -4.8125 -5.359375 C -4.519531 -5.171875 -4.265625 -4.921875 -4.046875 -4.609375 C -3.835938 -4.304688 -3.695312 -3.988281 -3.625 -3.65625 C -3.550781 -3.300781 -3.546875 -2.953125 -3.609375 -2.609375 Z M -3.875 -1.1875 C -3.769531 -1.726562 -3.773438 -2.265625 -3.890625 -2.796875 C -4.003906 -3.304688 -4.226562 -3.800781 -4.5625 -4.28125 C -4.875 -4.75 -5.253906 -5.125 -5.703125 -5.40625 C -6.148438 -5.695312 -6.660156 -5.894531 -7.234375 -6 C -6.671875 -5.894531 -6.132812 -5.894531 -5.625 -6 C -5.125 -6.113281 -4.625 -6.335938 -4.125 -6.671875 C -3.664062 -6.972656 -3.285156 -7.359375 -2.984375 -7.828125 C -2.679688 -8.285156 -2.484375 -8.789062 -2.390625 -9.34375 C -2.484375 -8.789062 -2.472656 -8.25 -2.359375 -7.71875 C -2.242188 -7.175781 -2.019531 -6.679688 -1.6875 -6.234375 C -1.363281 -5.753906 -0.972656 -5.367188 -0.515625 -5.078125 C -0.0664062 -4.796875 0.429688 -4.601562 0.984375 -4.5 C 0.421875 -4.601562 -0.117188 -4.597656 -0.640625 -4.484375 C -1.171875 -4.378906 -1.664062 -4.164062 -2.125 -3.84375 C -2.601562 -3.507812 -2.984375 -3.125 -3.265625 -2.6875 C -3.566406 -2.226562 -3.769531 -1.726562 -3.875 -1.1875 Z M -3.875 -1.1875 "/></g></g></g><g fill="#ffffff" fill-opacity="1"><g transform="translate(12.83889, 44.576113)"><g/></g></g><g fill="#ffffff" fill-opacity="1"><g transform="translate(14.112387, 40.534183)"><g><path d="M -0.859375 -9.988281 L -1.734375 -10.472656 L -5.109375 -4.394531 L 0.660156 -1.191406 L 1.207031 -2.171875 L -1.128906 -3.46875 L 1.367188 -7.972656 L 0.492188 -8.457031 L -2.003906 -3.957031 L -3.6875 -4.890625 Z M -0.859375 -9.988281 "/></g></g></g><g fill="#ffffff" fill-opacity="1"><g transform="translate(17.99192, 33.406167)"><g><path d="M 1.261719 -9.945312 L 0.507812 -10.601562 L -4.070312 -5.371094 L 0.898438 -1.027344 L 5.476562 -6.257812 L 4.722656 -6.917969 L 0.882812 -2.53125 L -0.40625 -3.660156 L 2.980469 -7.535156 L 2.226562 -8.191406 L -1.160156 -4.320312 L -2.578125 -5.558594 Z M 1.261719 -9.945312 "/></g></g></g><g fill="#ffffff" fill-opacity="1"><g transform="translate(23.518924, 26.917287)"><g><path d="M 4.71875 -9.148438 L 4.648438 -9.25 C 3.957031 -10.210938 2.972656 -10.261719 1.925781 -9.511719 L -2.746094 -6.15625 L 1.105469 -0.796875 L 2.082031 -1.496094 L 0.589844 -3.566406 L 3.914062 -5.957031 C 4.816406 -6.605469 5.214844 -6.050781 5.515625 -5.632812 L 5.945312 -5.03125 C 6.0625 -4.871094 6.199219 -4.699219 6.339844 -4.558594 L 7.386719 -5.308594 C 7.242188 -5.449219 7.097656 -5.617188 6.957031 -5.8125 L 6.5 -6.445312 C 6.101562 -7 5.53125 -7.324219 4.808594 -7.234375 C 5.203125 -7.761719 5.277344 -8.371094 4.71875 -9.148438 Z M -0.09375 -4.523438 L -1.128906 -5.960938 L 2.566406 -8.617188 C 3.175781 -9.054688 3.535156 -8.839844 3.71875 -8.582031 L 3.789062 -8.480469 C 4.09375 -8.0625 4.109375 -7.546875 3.601562 -7.179688 Z M -0.09375 -4.523438 "/></g></g></g><g fill="#ffffff" fill-opacity="1"><g transform="translate(31.170387, 21.326154)"><g><path d="M 4.671875 -8.980469 L 6.664062 -4.007812 L 0.191406 -7.183594 L -1.1875 -6.632812 L 1.265625 -0.507812 L 2.308594 -0.925781 L 0.320312 -5.886719 L 6.769531 -2.710938 L 8.167969 -3.273438 L 5.714844 -9.398438 Z M 4.671875 -8.980469 "/></g></g></g><g fill="#ffffff" fill-opacity="1"><g transform="translate(40.180829, 17.752972)"><g><path d="M 7.195312 -1.121094 L 8.464844 -1.320312 L 3.890625 -7.25 L 3.894531 -7.285156 L 2.59375 -7.082031 L 2.617188 -7.054688 L 0.0546875 -0.0078125 L 1.324219 -0.207031 L 1.785156 -1.46875 L 6.371094 -2.183594 Z M 2.214844 -2.648438 L 3.429688 -6 L 5.605469 -3.175781 Z M 2.214844 -2.648438 "/></g></g></g><g fill="#ffffff" fill-opacity="1"><g transform="translate(48.233915, 16.356863)"><g><path d="M 8.132812 -6.03125 L 7.746094 -0.6875 L 3.316406 -6.378906 L 1.835938 -6.484375 L 1.359375 0.0976562 L 2.480469 0.179688 L 2.863281 -5.152344 L 7.273438 0.523438 L 8.777344 0.632812 L 9.25 -5.949219 Z M 8.132812 -6.03125 "/></g></g></g><g fill="#ffffff" fill-opacity="1"><g transform="translate(57.833759, 16.955364)"><g><path d="M 7.050781 -4.613281 L 3.375 -5.832031 L 1.292969 0.429688 L 4.96875 1.652344 C 8.839844 2.9375 9.644531 1.734375 10.136719 0.261719 L 10.289062 -0.195312 C 10.792969 -1.722656 10.921875 -3.324219 7.050781 -4.613281 Z M 9.050781 -0.0976562 C 8.707031 0.933594 8.332031 1.609375 5.316406 0.605469 L 2.707031 -0.261719 L 4.09375 -4.433594 L 6.703125 -3.566406 C 9.59375 -2.605469 9.574219 -1.675781 9.203125 -0.558594 Z M 9.050781 -0.0976562 "/></g></g></g><g fill="#ffffff" fill-opacity="1"><g transform="translate(67.382164, 20.163852)"><g><path d="M 10.015625 -0.363281 L 10.546875 -1.214844 L 4.644531 -4.882812 L 1.160156 0.71875 L 7.0625 4.390625 L 7.589844 3.539062 L 2.640625 0.460938 L 3.546875 -0.996094 L 7.917969 1.722656 L 8.445312 0.875 L 4.074219 -1.84375 L 5.066406 -3.441406 Z M 10.015625 -0.363281 "/></g></g></g><g fill="#ffffff" fill-opacity="1"><g transform="translate(74.678334, 24.591019)"><g><path d="M 8.617188 2.261719 L 9.414062 3.054688 C 10.574219 1.882812 9.925781 0.414062 8.246094 -1.25 C 6.257812 -3.226562 4.894531 -3.664062 4.042969 -2.804688 L 3.980469 -2.742188 C 2.933594 -1.691406 3.644531 -0.707031 5.324219 1.351562 C 7.175781 3.558594 6.90625 3.847656 6.78125 3.972656 L 6.6875 4.066406 C 6.144531 4.613281 4.929688 3.496094 4.0625 2.636719 C 2.734375 1.320312 2.464844 0.355469 3.023438 -0.207031 L 2.230469 -0.996094 C 1.191406 0.0507812 1.453125 1.597656 3.285156 3.417969 C 5.246094 5.363281 6.507812 5.886719 7.53125 4.855469 L 7.609375 4.777344 C 8.660156 3.71875 7.761719 2.53125 6.152344 0.609375 C 4.390625 -1.5 4.621094 -1.75 4.808594 -1.9375 L 4.878906 -2.007812 C 5.25 -2.382812 6.363281 -1.570312 7.472656 -0.46875 C 8.582031 0.628906 9.214844 1.664062 8.617188 2.261719 Z M 8.617188 2.261719 "/></g></g></g><g fill="#ffffff" fill-opacity="1"><g transform="translate(81.241384, 31.401922)"><g/></g></g><g fill="#ffffff" fill-opacity="1"><g transform="translate(83.847388, 34.706395)"><g><path d="M 4.453125 0 C 4.609375 0.320312 4.695312 0.65625 4.71875 1 C 4.726562 1.34375 4.675781 1.691406 4.5625 2.046875 C 4.4375 2.398438 4.257812 2.703125 4.03125 2.953125 C 3.800781 3.210938 3.519531 3.425781 3.1875 3.59375 C 3.507812 3.425781 3.835938 3.332031 4.171875 3.3125 C 4.515625 3.289062 4.875 3.347656 5.25 3.484375 C 5.582031 3.585938 5.882812 3.757812 6.15625 4 C 6.425781 4.238281 6.640625 4.523438 6.796875 4.859375 C 6.640625 4.523438 6.546875 4.179688 6.515625 3.828125 C 6.503906 3.460938 6.5625 3.117188 6.6875 2.796875 C 6.820312 2.421875 7.003906 2.101562 7.234375 1.84375 C 7.460938 1.59375 7.738281 1.390625 8.0625 1.234375 C 7.726562 1.398438 7.382812 1.492188 7.03125 1.515625 C 6.6875 1.535156 6.34375 1.484375 6 1.359375 C 5.644531 1.222656 5.335938 1.046875 5.078125 0.828125 C 4.816406 0.597656 4.609375 0.320312 4.453125 0 Z M 3.828125 -1.3125 C 4.066406 -0.8125 4.390625 -0.378906 4.796875 -0.015625 C 5.191406 0.316406 5.660156 0.582031 6.203125 0.78125 C 6.734375 0.976562 7.265625 1.0625 7.796875 1.03125 C 8.335938 1 8.863281 0.859375 9.375 0.609375 C 8.875 0.847656 8.445312 1.160156 8.09375 1.546875 C 7.738281 1.941406 7.460938 2.414062 7.265625 2.96875 C 7.078125 3.5 6.992188 4.039062 7.015625 4.59375 C 7.046875 5.132812 7.179688 5.660156 7.421875 6.171875 C 7.179688 5.660156 6.859375 5.222656 6.453125 4.859375 C 6.035156 4.492188 5.5625 4.222656 5.03125 4.046875 C 4.46875 3.847656 3.925781 3.765625 3.40625 3.796875 C 2.882812 3.835938 2.367188 3.976562 1.859375 4.21875 C 2.378906 3.976562 2.816406 3.65625 3.171875 3.25 C 3.523438 2.851562 3.789062 2.390625 3.96875 1.859375 C 4.164062 1.304688 4.253906 0.769531 4.234375 0.25 C 4.203125 -0.289062 4.066406 -0.8125 3.828125 -1.3125 Z M 3.828125 -1.3125 "/></g></g></g></svg>