<svg xmlns="http://www.w3.org/2000/svg" xmlns:xlink="http://www.w3.org/1999/xlink" width="500" zoomAndPan="magnify" viewBox="0 0 375 374.999991" height="500" preserveAspectRatio="xMidYMid meet" version="1.0"><defs><g/><clipPath id="35387179df"><path d="M 36 36 L 339 36 L 339 339 L 36 339 Z M 36 36 " clip-rule="nonzero"/></clipPath><clipPath id="e8d3d9127b"><path d="M -29.699219 170.40625 L 204.691406 -29.789062 L 404.890625 204.597656 L 170.5 404.796875 Z M -29.699219 170.40625 " clip-rule="nonzero"/></clipPath><clipPath id="8298a1fb52"><path d="M -29.699219 170.40625 L 204.691406 -29.789062 L 404.890625 204.597656 L 170.5 404.796875 Z M -29.699219 170.40625 " clip-rule="nonzero"/></clipPath><clipPath id="a69c63a2c0"><path d="M 33 33 L 342 33 L 342 342 L 33 342 Z M 33 33 " clip-rule="nonzero"/></clipPath><clipPath id="bc5cd1a233"><path d="M -29.699219 170.40625 L 204.691406 -29.789062 L 404.890625 204.597656 L 170.5 404.796875 Z M -29.699219 170.40625 " clip-rule="nonzero"/></clipPath><clipPath id="9ae8ce67da"><path d="M -29.699219 170.40625 L 204.691406 -29.789062 L 404.890625 204.597656 L 170.5 404.796875 Z M -29.699219 170.40625 " clip-rule="nonzero"/></clipPath><clipPath id="f7ab8ee250"><path d="M 88.21875 92.941406 L 226.21875 92.941406 L 226.21875 230.941406 L 88.21875 230.941406 Z M 88.21875 92.941406 " clip-rule="nonzero"/></clipPath></defs><g clip-path="url(#35387179df)"><g clip-path="url(#e8d3d9127b)"><g clip-path="url(#8298a1fb52)"><path fill="#ffffff" d="M 285.703125 302.355469 C 222.269531 356.535156 126.925781 349.035156 72.742188 285.601562 C 18.5625 222.167969 26.070312 126.828125 89.503906 72.644531 C 152.9375 18.464844 248.277344 25.972656 302.457031 89.40625 C 356.636719 152.839844 349.136719 248.175781 285.703125 302.355469 Z M 285.703125 302.355469 " fill-opacity="1" fill-rule="nonzero"/></g></g></g><g clip-path="url(#a69c63a2c0)"><g clip-path="url(#bc5cd1a233)"><g clip-path="url(#9ae8ce67da)"><path fill="#545454" d="M 287.707031 304.699219 C 271.886719 318.210938 253.890625 328.21875 234.214844 334.453125 C 215.21875 340.46875 195.464844 342.726562 175.511719 341.15625 C 155.5625 339.585938 136.402344 334.265625 118.578125 325.355469 C 100.125 316.128906 83.917969 303.429688 70.40625 287.609375 C 56.894531 271.789062 46.886719 253.792969 40.652344 234.117188 C 34.636719 215.121094 32.378906 195.367188 33.949219 175.414062 C 35.519531 155.464844 40.835938 136.304688 49.75 118.484375 C 58.976562 100.027344 71.683594 83.8125 87.503906 70.300781 C 103.320312 56.789062 121.316406 46.78125 140.992188 40.550781 C 159.992188 34.535156 179.746094 32.277344 199.695312 33.84375 C 219.648438 35.414062 238.804688 40.734375 256.628906 49.648438 C 275.082031 58.875 291.296875 71.578125 304.808594 87.398438 C 318.320312 103.21875 328.328125 121.214844 334.5625 140.890625 C 340.578125 159.886719 342.835938 179.640625 341.265625 199.59375 C 339.695312 219.542969 334.378906 238.703125 325.464844 256.527344 C 316.230469 274.984375 303.527344 291.1875 287.707031 304.699219 Z M 91.507812 74.992188 C 76.316406 87.964844 64.121094 103.519531 55.261719 121.242188 C 46.707031 138.347656 41.597656 156.742188 40.089844 175.90625 C 38.582031 195.066406 40.746094 214.027344 46.523438 232.269531 C 52.507812 251.144531 62.117188 268.425781 75.09375 283.617188 C 88.066406 298.808594 103.621094 311.003906 121.34375 319.863281 C 138.449219 328.417969 156.84375 333.527344 176.007812 335.03125 C 195.167969 336.539062 214.128906 334.378906 232.371094 328.597656 C 251.246094 322.617188 268.527344 313.007812 283.71875 300.03125 C 298.910156 287.054688 311.105469 271.5 319.964844 253.78125 C 328.519531 236.671875 333.628906 218.277344 335.136719 199.117188 C 336.640625 179.957031 334.480469 160.996094 328.699219 142.753906 C 322.71875 123.878906 313.109375 106.59375 300.132812 91.402344 C 287.15625 76.210938 271.601562 64.019531 253.882812 55.160156 C 236.773438 46.605469 218.382812 41.496094 199.21875 39.988281 C 180.058594 38.480469 161.097656 40.644531 142.855469 46.421875 C 123.96875 52.402344 106.691406 62.019531 91.507812 74.992188 Z M 106.613281 150.195312 C 100.953125 155.03125 107.179688 171.617188 120.523438 187.242188 C 133.867188 202.867188 149.273438 211.613281 154.941406 206.773438 C 160.605469 201.933594 154.375 185.351562 141.03125 169.726562 C 127.6875 154.101562 112.277344 145.359375 106.613281 150.195312 Z M 163.414062 101.679688 C 157.753906 106.515625 163.980469 123.101562 177.324219 138.726562 C 190.667969 154.351562 206.074219 163.097656 211.742188 158.257812 C 217.402344 153.421875 211.175781 136.835938 197.832031 121.210938 C 184.488281 105.585938 169.082031 96.839844 163.414062 101.679688 Z M 278.554688 130.234375 C 261.089844 125.023438 256.597656 138.355469 256.597656 138.355469 C 255.742188 140.523438 256.527344 141.746094 257.519531 142.429688 C 258.5 143.097656 259.757812 143.238281 260.882812 142.875 C 262.90625 142.222656 264.71875 141.582031 266.351562 140.960938 C 272.210938 148.386719 276.390625 156.875 278.785156 166.242188 C 281.324219 176.164062 281.777344 186.652344 280.117188 197.417969 C 278.460938 208.222656 274.765625 218.753906 269.128906 228.71875 C 263.289062 239.058594 255.609375 248.328125 246.316406 256.265625 C 237.019531 264.203125 226.664062 270.339844 215.539062 274.492188 C 204.820312 278.496094 193.832031 280.496094 182.902344 280.449219 C 172.019531 280.398438 161.722656 278.316406 152.320312 274.257812 C 143.820312 270.582031 136.367188 265.429688 130.121094 258.894531 C 132.574219 256.332031 134.316406 254.121094 133.988281 253.3125 C 132.875 250.546875 126.015625 246.6875 115.625 260.808594 C 115.625 260.808594 112.582031 266.492188 116.375 269.429688 C 117.117188 270.011719 118.175781 269.964844 118.898438 269.347656 C 120.371094 268.089844 123.035156 265.738281 125.722656 263.210938 C 132.53125 270.304688 140.640625 275.914062 149.878906 279.90625 C 160.050781 284.304688 171.15625 286.558594 182.871094 286.609375 C 194.554688 286.664062 206.265625 284.523438 217.6875 280.261719 C 229.488281 275.859375 240.464844 269.359375 250.3125 260.945312 C 260.160156 252.535156 268.292969 242.714844 274.492188 231.742188 C 280.488281 221.128906 284.429688 209.890625 286.207031 198.347656 C 287.988281 186.757812 287.496094 175.445312 284.746094 164.714844 C 282.265625 155.054688 278.058594 146.242188 272.191406 138.460938 C 276.773438 136.21875 278.765625 134.351562 279.613281 133.019531 C 280.277344 131.964844 279.730469 130.585938 278.554688 130.234375 Z M 278.554688 130.234375 " fill-opacity="1" fill-rule="nonzero"/></g></g></g><path fill="#ff0000" d="M 224.546875 163.121094 C 223.808594 164.328125 222.558594 165.042969 221.324219 165.734375 C 221.847656 166.488281 221.828125 167.503906 221.59375 168.390625 C 221.359375 169.28125 220.9375 170.109375 220.703125 171 C 220.464844 171.886719 220.527344 173.0625 221.039062 173.820312 C 220.332031 173.851562 219.734375 174.417969 219.445312 175.070312 C 219.160156 175.722656 219.113281 176.449219 219.054688 177.15625 C 218.992188 177.867188 218.898438 178.597656 218.527344 179.207031 L 218.542969 179.210938 C 219.5625 179.613281 220.621094 180.042969 221.34375 180.871094 C 221.550781 181.117188 221.730469 181.390625 221.84375 181.6875 C 222.09375 182.375 221.992188 183.152344 221.707031 183.824219 C 221.425781 184.5 220.980469 185.089844 220.542969 185.671875 C 221.113281 186.242188 222.050781 186.882812 222.3125 187.648438 C 222.476562 188.136719 222.492188 188.660156 222.5625 189.171875 C 222.816406 190.980469 223.777344 192.679688 223.714844 194.507812 L 223.714844 194.511719 C 223.710938 194.699219 223.574219 194.855469 223.414062 194.949219 C 223.253906 195.046875 223.074219 195.097656 222.910156 195.183594 C 222.34375 195.472656 222.042969 196.117188 221.921875 196.746094 C 221.804688 197.375 221.824219 198.023438 221.691406 198.648438 C 221.417969 199.921875 220.445312 200.957031 219.597656 201.949219 C 220.058594 202.527344 220.527344 203.117188 220.789062 203.804688 C 221.050781 204.496094 221.082031 205.316406 220.691406 205.941406 C 220.210938 206.707031 219.054688 207.074219 218.179688 207.304688 C 218.824219 207.929688 219.507812 208.617188 219.636719 209.507812 C 219.722656 210.125 219.535156 210.753906 219.613281 211.371094 C 219.683594 211.90625 219.953125 212.398438 220.300781 212.804688 C 220.648438 213.214844 221.070312 213.558594 221.484375 213.898438 C 220.730469 215.03125 220.808594 216.652344 221.164062 217.964844 C 221.515625 219.28125 222.144531 220.511719 222.492188 221.828125 C 222.941406 223.511719 222.910156 225.316406 222.414062 226.980469 C 220.152344 227.519531 217.53125 227.523438 215.332031 226.773438 C 214.320312 226.425781 213.351562 225.949219 212.308594 225.722656 C 211.261719 225.496094 210.003906 225.53125 209.152344 226.175781 C 208.765625 225.535156 208.164062 225.023438 207.472656 224.746094 C 206.667969 224.421875 205.773438 224.410156 204.917969 224.273438 C 204.058594 224.136719 203.105469 223.765625 202.621094 223.046875 C 202.414062 223.949219 201.992188 224.804688 201.394531 225.511719 C 201.179688 225.765625 200.921875 226.011719 200.59375 226.0625 C 200.34375 226.097656 200.101562 226.011719 199.867188 225.921875 C 198.992188 225.578125 198.125 225.050781 197.355469 224.511719 C 196.898438 224.488281 196.484375 224.785156 196.167969 225.113281 C 195.851562 225.441406 195.578125 225.828125 195.191406 226.070312 C 194.203125 226.691406 192.863281 226.207031 191.777344 226.628906 C 190.882812 226.976562 190.128906 227.820312 189.640625 228.644531 C 189.328125 228.378906 188.90625 228.285156 188.5 228.25 C 188.09375 228.21875 187.679688 228.230469 187.28125 228.140625 C 186.679688 228.007812 186.15625 227.652344 185.570312 227.464844 C 184.746094 227.199219 183.835938 227.277344 183.011719 227.007812 C 182.078125 226.703125 181.347656 225.980469 180.652344 225.28125 C 179.785156 225.929688 179.386719 226.074219 178.378906 226.472656 C 177.976562 226.632812 177.535156 226.773438 177.113281 226.671875 C 176.761719 226.585938 176.472656 226.339844 176.21875 226.085938 C 175.464844 225.339844 174.859375 224.378906 174.441406 223.402344 C 173.339844 223.964844 171.976562 223.546875 170.796875 223.921875 C 169.972656 224.183594 169.238281 224.882812 168.953125 225.703125 C 168.355469 225.132812 167.40625 225.128906 166.621094 225.375 C 165.835938 225.617188 165.125 226.0625 164.339844 226.308594 C 163.277344 226.636719 162.09375 226.566406 161.078125 226.113281 L 161.082031 225.894531 C 160.695312 227.359375 159.644531 228.636719 158.285156 229.296875 C 157.898438 229.480469 157.472656 229.625 157.054688 229.558594 C 156.699219 229.5 156.382812 229.308594 156.09375 229.097656 C 155.027344 228.339844 154.121094 227.359375 153.441406 226.238281 C 152.234375 226.441406 151 226.648438 149.875 226.160156 C 149.300781 225.914062 148.800781 225.496094 148.214844 225.277344 C 147.289062 224.941406 146.183594 225.160156 145.460938 225.824219 C 145.316406 225.117188 144.707031 224.53125 144.050781 224.238281 C 143.394531 223.945312 142.664062 223.863281 141.949219 223.789062 C 141.230469 223.710938 140.503906 223.628906 139.847656 223.328125 C 139.730469 224.375 139.3125 225.179688 138.601562 225.960938 C 138.316406 226.277344 137.96875 226.566406 137.550781 226.632812 C 137.28125 226.675781 137 226.617188 136.738281 226.546875 C 135.777344 226.285156 134.867188 225.851562 134.0625 225.269531 C 132.75 225.71875 131.972656 227.089844 130.617188 227.390625 C 129.980469 227.53125 129.300781 227.40625 128.664062 227.546875 C 128.164062 227.660156 127.71875 227.921875 127.226562 228.066406 C 126.363281 228.324219 125.378906 228.203125 124.605469 228.667969 C 124.195312 227.738281 123.199219 226.984375 122.226562 226.707031 C 121.65625 226.542969 121.050781 226.53125 120.464844 226.40625 C 119.351562 226.167969 118.136719 225.308594 117.460938 224.394531 C 116.960938 224.859375 116.871094 224.945312 116.28125 225.289062 C 115.6875 225.632812 114.996094 225.832031 114.324219 225.734375 C 113.710938 225.644531 113.148438 225.292969 112.753906 224.816406 C 112.359375 224.339844 112.039062 223.546875 111.960938 222.929688 C 111.445312 223.753906 110.5 224.261719 109.535156 224.359375 C 108.875 224.429688 108.203125 224.324219 107.550781 224.445312 C 106.640625 224.617188 105.675781 225.394531 105.292969 226.238281 C 104.488281 225.640625 103.40625 225.566406 102.410156 225.703125 C 100.8125 225.925781 99.324219 226.621094 97.769531 227.039062 C 95.972656 227.519531 93.464844 227.53125 92.042969 226.984375 C 91.546875 225.320312 91.519531 223.515625 91.964844 221.832031 C 92.316406 220.515625 92.945312 219.285156 93.296875 217.96875 C 93.652344 216.652344 93.730469 215.03125 92.972656 213.898438 C 93.390625 213.5625 93.8125 213.222656 94.15625 212.808594 C 94.503906 212.398438 94.777344 211.910156 94.84375 211.375 C 94.925781 210.757812 94.730469 210.128906 94.820312 209.511719 C 94.949219 208.621094 95.632812 207.929688 96.277344 207.304688 C 95.402344 207.082031 94.25 206.710938 93.769531 205.945312 C 93.375 205.320312 93.40625 204.5 93.667969 203.808594 C 93.933594 203.117188 94.402344 202.527344 94.863281 201.953125 C 94.015625 200.960938 93.039062 199.929688 92.769531 198.652344 C 92.632812 198.027344 92.65625 197.378906 92.535156 196.75 C 92.417969 196.121094 92.117188 195.476562 91.546875 195.1875 C 91.382812 195.101562 91.199219 195.046875 91.042969 194.953125 C 90.882812 194.855469 90.746094 194.699219 90.742188 194.515625 L 90.742188 194.511719 C 90.679688 192.6875 91.640625 190.984375 91.894531 189.175781 C 91.96875 188.664062 91.980469 188.136719 92.148438 187.648438 C 92.40625 186.882812 93.339844 186.246094 93.917969 185.675781 C 93.472656 185.089844 93.03125 184.5 92.75 183.824219 C 92.46875 183.152344 92.359375 182.371094 92.617188 181.691406 C 92.726562 181.390625 92.90625 181.113281 93.117188 180.875 C 93.832031 180.046875 94.898438 179.613281 95.914062 179.210938 L 95.929688 179.207031 C 95.5625 178.597656 95.46875 177.871094 95.40625 177.160156 C 95.34375 176.449219 95.296875 175.722656 95.011719 175.074219 C 94.726562 174.425781 94.128906 173.855469 93.417969 173.824219 C 93.933594 173.0625 93.992188 171.890625 93.757812 171 C 93.519531 170.113281 93.097656 169.28125 92.863281 168.394531 C 92.632812 167.503906 92.613281 166.492188 93.136719 165.734375 C 91.898438 165.046875 90.648438 164.332031 89.914062 163.125 C 89.632812 162.671875 89.441406 162.128906 89.539062 161.605469 C 89.613281 161.210938 89.839844 160.859375 90.089844 160.539062 C 90.492188 160.015625 90.957031 159.542969 91.476562 159.128906 C 91.824219 158.855469 92.195312 158.601562 92.472656 158.253906 C 92.746094 157.90625 92.910156 157.433594 92.761719 157.015625 C 92.679688 156.316406 92.703125 155.476562 92.925781 154.804688 C 93.171875 154.054688 93.726562 153.429688 93.949219 152.671875 C 94.210938 151.804688 94.011719 150.78125 93.417969 150.105469 C 93.832031 149.929688 94.265625 149.742188 94.5625 149.402344 C 94.828125 149.097656 94.960938 148.699219 95.066406 148.308594 C 95.355469 147.207031 95.453125 146.070312 95.554688 144.941406 C 95.566406 144.828125 95.574219 144.707031 95.511719 144.613281 C 95.453125 144.515625 95.089844 144.421875 95.019531 144.507812 C 93.769531 144.207031 92.742188 143.121094 92.515625 141.851562 C 92.285156 140.582031 92.871094 139.207031 93.945312 138.492188 C 93.007812 137.90625 92.351562 136.875 92.019531 135.820312 C 91.683594 134.769531 91.574219 133.660156 91.40625 132.570312 C 91.242188 131.476562 90.996094 130.371094 90.429688 129.425781 C 91.316406 128.757812 92.273438 128.113281 92.566406 127.089844 C 92.785156 126.339844 92.734375 125.535156 92.914062 124.777344 C 93.15625 123.726562 93.847656 122.792969 94.773438 122.253906 C 94.316406 121.671875 93.867188 120.921875 93.640625 120.21875 C 93.410156 119.519531 93.40625 118.714844 93.789062 118.082031 C 94.269531 117.277344 95.339844 116.867188 96.253906 116.652344 L 96.292969 116.652344 C 95.839844 116.316406 95.859375 116.339844 95.53125 115.882812 C 95.132812 115.324219 94.960938 114.636719 94.859375 113.957031 C 94.757812 113.277344 94.710938 112.585938 94.519531 111.925781 C 94.535156 111.457031 94.28125 110.902344 93.890625 110.644531 C 93.628906 110.480469 93.292969 110.371094 93.164062 110.089844 C 93.085938 109.90625 93.121094 109.6875 93.226562 109.519531 C 93.328125 109.351562 93.515625 109.195312 93.691406 109.101562 C 93.632812 107.222656 92.867188 105.445312 92.382812 103.625 C 91.785156 101.394531 91.601562 99.058594 91.847656 96.761719 C 93.269531 96.214844 95.984375 96.347656 97.78125 96.832031 C 99.335938 97.246094 100.824219 97.945312 102.421875 98.164062 C 103.414062 98.300781 104.496094 98.226562 105.304688 97.632812 C 105.6875 98.476562 106.652344 99.257812 107.5625 99.425781 C 108.214844 99.546875 108.886719 99.441406 109.546875 99.507812 C 110.515625 99.605469 111.457031 100.113281 111.96875 100.9375 C 112.054688 100.324219 112.375 99.535156 112.765625 99.054688 C 113.164062 98.578125 113.722656 98.230469 114.335938 98.132812 C 115.011719 98.03125 115.699219 98.238281 116.289062 98.582031 C 116.882812 98.917969 116.972656 99.007812 117.472656 99.472656 C 118.152344 98.558594 119.363281 97.699219 120.476562 97.460938 C 121.0625 97.339844 121.667969 97.324219 122.238281 97.160156 C 123.214844 96.882812 124.207031 96.132812 124.613281 95.199219 C 125.394531 95.664062 126.371094 95.539062 127.238281 95.800781 C 127.726562 95.945312 128.175781 96.207031 128.675781 96.320312 C 129.316406 96.460938 129.992188 96.335938 130.628906 96.476562 C 131.984375 96.777344 132.761719 98.152344 134.070312 98.597656 C 134.878906 98.015625 135.789062 97.578125 136.75 97.320312 C 137.015625 97.25 137.292969 97.191406 137.5625 97.234375 C 137.980469 97.296875 138.332031 97.589844 138.613281 97.90625 C 139.320312 98.6875 139.742188 99.492188 139.855469 100.539062 C 140.511719 100.238281 141.242188 100.15625 141.957031 100.078125 C 142.675781 100.003906 143.402344 99.921875 144.0625 99.628906 C 144.722656 99.335938 145.324219 98.746094 145.472656 98.042969 C 146.195312 98.710938 147.300781 98.929688 148.222656 98.589844 C 148.816406 98.371094 149.3125 97.957031 149.886719 97.707031 C 151.011719 97.222656 152.242188 97.429688 153.453125 97.628906 C 154.132812 96.507812 155.039062 95.535156 156.101562 94.769531 C 156.398438 94.5625 156.710938 94.367188 157.066406 94.308594 C 157.488281 94.246094 157.914062 94.386719 158.296875 94.570312 C 159.660156 95.230469 160.707031 96.507812 161.089844 97.972656 L 161.089844 97.753906 C 162.105469 97.300781 163.289062 97.230469 164.351562 97.558594 C 165.136719 97.804688 165.847656 98.25 166.632812 98.492188 C 167.417969 98.738281 168.363281 98.730469 168.964844 98.167969 C 169.246094 98.980469 169.980469 99.683594 170.808594 99.949219 C 171.988281 100.320312 173.351562 99.902344 174.449219 100.464844 C 174.871094 99.488281 175.476562 98.53125 176.226562 97.78125 C 176.484375 97.527344 176.773438 97.28125 177.125 97.195312 C 177.546875 97.089844 177.988281 97.234375 178.390625 97.394531 C 179.394531 97.792969 179.796875 97.9375 180.664062 98.585938 C 181.359375 97.886719 182.085938 97.167969 183.023438 96.859375 C 183.847656 96.589844 184.757812 96.667969 185.582031 96.402344 C 186.167969 96.214844 186.691406 95.859375 187.292969 95.726562 C 187.691406 95.640625 188.105469 95.652344 188.511719 95.617188 C 188.917969 95.582031 189.339844 95.484375 189.652344 95.222656 C 190.140625 96.046875 190.890625 96.894531 191.785156 97.238281 C 192.878906 97.65625 194.21875 97.171875 195.203125 97.796875 C 195.59375 98.042969 195.863281 98.425781 196.179688 98.753906 C 196.496094 99.082031 196.910156 99.378906 197.367188 99.355469 C 198.136719 98.820312 199.003906 98.292969 199.878906 97.945312 C 200.113281 97.855469 200.355469 97.769531 200.605469 97.804688 C 200.929688 97.851562 201.191406 98.097656 201.402344 98.355469 C 202.003906 99.0625 202.425781 99.917969 202.632812 100.820312 C 203.117188 100.101562 204.070312 99.730469 204.929688 99.59375 C 205.785156 99.457031 206.675781 99.445312 207.484375 99.121094 C 208.175781 98.839844 208.773438 98.332031 209.164062 97.691406 C 210.015625 98.339844 211.273438 98.375 212.316406 98.144531 C 213.363281 97.917969 214.332031 97.4375 215.34375 97.09375 C 217.542969 96.34375 220.367188 96.222656 222.632812 96.757812 C 222.878906 99.054688 222.695312 101.394531 222.097656 103.625 C 221.609375 105.441406 220.84375 107.214844 220.789062 109.097656 C 220.964844 109.191406 221.148438 109.347656 221.253906 109.519531 C 221.359375 109.691406 221.394531 109.90625 221.316406 110.085938 C 221.1875 110.375 220.847656 110.476562 220.589844 110.644531 C 220.195312 110.898438 219.945312 111.457031 219.960938 111.925781 C 219.773438 112.585938 219.726562 113.277344 219.621094 113.953125 C 219.515625 114.632812 219.347656 115.320312 218.949219 115.878906 C 218.621094 116.335938 218.640625 116.316406 218.1875 116.648438 L 218.226562 116.648438 C 219.140625 116.863281 220.207031 117.277344 220.691406 118.078125 C 221.070312 118.710938 221.070312 119.519531 220.839844 120.21875 C 220.613281 120.921875 220.164062 121.671875 219.703125 122.25 C 220.632812 122.792969 221.320312 123.730469 221.566406 124.777344 C 221.742188 125.535156 221.695312 126.335938 221.914062 127.085938 C 222.210938 128.109375 223.164062 128.757812 224.050781 129.425781 C 223.480469 130.371094 223.238281 131.476562 223.070312 132.566406 C 222.90625 133.65625 222.796875 134.765625 222.460938 135.820312 C 222.125 136.871094 221.472656 137.902344 220.535156 138.488281 C 221.609375 139.207031 222.191406 140.582031 221.964844 141.851562 C 221.742188 143.117188 220.714844 144.207031 219.460938 144.507812 C 219.390625 144.421875 219.027344 144.515625 218.96875 144.609375 C 218.910156 144.707031 218.917969 144.824219 218.925781 144.9375 C 219.027344 146.070312 219.128906 147.207031 219.414062 148.304688 C 219.519531 148.699219 219.652344 149.09375 219.917969 149.398438 C 220.214844 149.738281 220.648438 149.925781 221.0625 150.101562 C 220.46875 150.78125 220.269531 151.804688 220.527344 152.667969 C 220.753906 153.429688 221.308594 154.054688 221.554688 154.804688 C 221.777344 155.472656 221.800781 156.308594 221.71875 157.011719 C 221.570312 157.429688 221.734375 157.90625 222.007812 158.25 C 222.28125 158.597656 222.65625 158.851562 223.003906 159.128906 C 223.519531 159.539062 223.988281 160.011719 224.390625 160.535156 C 224.640625 160.855469 224.867188 161.207031 224.941406 161.605469 C 225.019531 162.125 224.824219 162.664062 224.546875 163.121094 Z M 224.546875 163.121094 " fill-opacity="1" fill-rule="nonzero"/><g clip-path="url(#f7ab8ee250)"><path fill="#ffffff" d="M 88.21875 92.941406 L 226.21875 92.941406 L 226.21875 230.941406 L 88.21875 230.941406 Z M 88.21875 92.941406 " fill-opacity="1" fill-rule="nonzero"/></g><g fill="#ffa7e4" fill-opacity="1"><g transform="translate(234.710959, 241.266979)"><g/></g></g><g fill="#545454" fill-opacity="1"><g transform="translate(132.967019, 226.268595)"><g><path d="M 41.660156 -43.953125 L -1.558594 -74.246094 C -2.351562 -74.816406 -3.449219 -75.746094 -5.109375 -75.996094 C -6.777344 -76.136719 -8.125 -75.40625 -8.964844 -74.695312 L -24.742188 -61.335938 C -25.644531 -60.574219 -26.234375 -59.558594 -26.429688 -58.566406 C -26.671875 -57.636719 -26.722656 -56.351562 -26.046875 -55.0625 L -3.1875 -6.085938 C -2.039062 -3.753906 0.597656 -2.46875 3.066406 -3.214844 C 3.75 -3.382812 4.285156 -3.730469 4.886719 -4.242188 L 13.074219 -11.171875 C 15.304688 -13.058594 15.035156 -15.210938 14 -18.261719 L 11.769531 -24.4375 L 20.984375 -32.238281 L 26.765625 -29.070312 C 29.605469 -27.546875 31.734375 -26.867188 33.960938 -28.753906 L 42.148438 -35.683594 C 42.8125 -36.246094 43.320312 -36.988281 43.546875 -37.695312 C 44.460938 -39.914062 43.613281 -42.503906 41.660156 -43.953125 Z M 7.460938 -44.667969 L 1.859375 -39.925781 C 1.257812 -39.417969 0.316406 -39.550781 0.109375 -40.410156 L -1.792969 -45.828125 L -3.238281 -49.980469 C -3.660156 -50.964844 -2.578125 -51.882812 -1.671875 -51.304688 L 2.242188 -49.242188 L 7.273438 -46.476562 C 7.964844 -46.027344 8.003906 -45.125 7.460938 -44.667969 Z M 7.460938 -44.667969 "/></g></g></g><g fill="#545454" fill-opacity="1"><g transform="translate(180.050678, 186.406348)"><g/></g></g><g fill="#545454" fill-opacity="1"><g transform="translate(200.521835, 169.074936)"><g><path d="M -9.609375 -74.355469 L -34.296875 -53.453125 C -36.707031 -51.414062 -37.011719 -47.746094 -34.921875 -45.277344 L -1.785156 -6.136719 C 0.304688 -3.667969 3.972656 -3.363281 6.382812 -5.402344 L 13.910156 -11.777344 C 16.378906 -13.867188 16.683594 -17.535156 14.59375 -20.003906 L 5.007812 -31.324219 C 4.753906 -31.625 4.832031 -31.898438 5.023438 -32.164062 L 13.875 -39.65625 C 15.441406 -40.984375 15.695312 -43.367188 14.367188 -44.933594 L 8.761719 -51.558594 C 7.382812 -53.183594 4.988281 -53.328125 3.421875 -52 L -5.429688 -44.507812 C -5.667969 -44.304688 -6.003906 -44.332031 -6.207031 -44.570312 L -10.898438 -50.109375 C -11.050781 -50.292969 -11.074219 -50.6875 -10.832031 -50.890625 L 1.453125 -61.289062 C 3.199219 -62.769531 3.359375 -65.386719 1.933594 -67.070312 L -3.777344 -73.816406 C -5.308594 -75.621094 -7.863281 -75.835938 -9.609375 -74.355469 Z M -9.609375 -74.355469 "/></g></g></g><path stroke-linecap="butt" transform="matrix(0.314203, -0.266013, 0.266013, 0.314203, 30.453981, 227.945551)" fill="none" stroke-linejoin="miter" d="M 345.472241 136.908082 L 312.909812 12.915513 C 312.349364 10.625918 311.738536 7.162337 309.078864 4.07763 C 306.223002 1.224655 302.572027 0.470904 299.859131 0.474058 L 249.655799 0.476408 C 246.800825 0.471165 244.091571 1.409821 242.21346 2.952685 C 240.293054 4.310554 238.140605 6.603303 237.400849 10.017481 L 202.911281 136.717876 C 201.374014 142.850859 204.223301 149.353343 209.983274 151.830465 C 211.52365 152.624866 213.067536 152.813059 214.985898 152.808572 L 241.047856 152.818527 C 248.110076 152.817683 251.016408 148.415669 253.86392 141.116874 L 259.437567 126.192746 L 288.770159 126.186885 L 294.520579 141.113013 C 297.375775 148.416162 300.281306 153.001972 307.343527 153.001129 L 333.404374 152.99771 C 335.512173 153.004419 337.619573 152.438907 339.160438 151.455913 C 344.351833 148.789577 346.831843 142.659082 345.472241 136.908082 Z M 283.198872 81.88587 L 265.371433 81.885424 C 263.459201 81.882669 261.912383 80.200126 262.890757 78.28092 L 267.85211 65.225396 L 271.689902 55.25911 C 272.486791 52.77599 275.900613 52.781944 276.698924 55.260487 L 280.717887 65.227263 L 285.679859 78.279945 C 286.290554 80.201817 284.928908 81.88356 283.198872 81.88587 Z M 513.180642 0.0518886 L 434.572978 0.0503259 C 426.898419 0.0549011 420.579952 6.416683 420.586704 14.279569 L 420.583093 138.822587 C 420.589845 146.685472 426.904268 153.00114 434.572696 153.003807 L 458.532985 152.999811 C 466.38974 153.0003 472.705408 146.685877 472.705898 138.829123 L 472.702436 102.797591 C 472.701592 101.81473 473.316818 101.440476 474.061816 101.250684 L 502.230463 101.253974 C 507.239485 101.255352 511.442822 97.230346 511.4414 92.268683 L 511.446645 71.17563 C 511.445846 65.978282 507.23358 61.952075 502.224558 61.950698 L 474.063153 61.953538 C 473.315978 61.955004 472.710481 61.392646 472.709015 60.645471 L 472.704396 43.000227 C 472.705107 42.441379 473.312648 41.650354 474.059823 41.648888 L 513.174773 41.64516 C 518.695284 41.64445 523.14226 37.067348 523.139284 31.681673 L 523.146305 10.204726 C 523.143418 4.495888 518.701153 0.0511783 513.180642 0.0518886 Z M 513.180642 0.0518886 " stroke="#545454" stroke-width="3.114264" stroke-opacity="1" stroke-miterlimit="4"/></svg>