<svg xmlns="http://www.w3.org/2000/svg" fill="#ff5757" viewBox="0 0 512 512">
    <path fill="#ff5757" d="M512 256c-47 14-48 29-5 52-49 4-53 17-15 48-48-6-55 6-24 43-46-15-55-4-31 38-43-23-53-15-38 31-37-31-49-24-43 24-31-38-44-34-49 15-23-43-37-42-51 5-15-47-29-48-52-5-4-49-17-53-48-15 6-48-6-55-43-24 15-46 4-54-38-31 23-42 15-53-31-38 31-37 24-49-24-43 38-31 34-44-15-48 43-23 42-38-5-52 47-14 48-29 5-52 49-4 53-17 15-48 48 6 55-6 24-43 46 15 54 4 31-38 42 23 53 15 38-31 37 31 49 24 43-24 31 38 44 34 48-15 23 43 38 42 52-5 14 47 29 48 52 5 4 49 17 53 48 15-6 48 6 55 43 24-15 46-4 54 38 31-23 42-15 53 31 38-31 37-24 49 24 43-38 31-34 44 15 48-43 23-42 37 5 52z"/>
</svg>
