<svg width="60" height="60" viewBox="0 0 60 60" fill="none" xmlns="http://www.w3.org/2000/svg" class="w-30 h-30 s:w-60 s:h-60 rotate-star"><path fill-rule="evenodd" clip-rule="evenodd" d="M26.8112 0V7.23512L29.178 27.7775C29.1756 27.7783 29.1732 27.7792 29.1708 27.78L16.1576 11.6487L11.0416 6.53273L8.87019 8.70416L8.87067 8.70463L6.53269 11.0426L11.6487 16.1586L27.7996 28.9723C27.7933 28.9845 27.787 28.9967 27.7809 29.009L7.23512 26.8109L0 26.8109V29.8817V29.8818V33.1888H7.23512L27.626 30.8394C27.6352 30.8699 27.645 30.9001 27.6554 30.9301L11.6486 43.8429L6.53258 48.9589L8.70359 51.1299L8.70319 51.1303L11.0417 53.4688L16.1577 48.3528L28.8715 32.3278C28.9109 32.3479 28.9509 32.3671 28.9915 32.3852L26.8112 52.7646V59.9997H29.8817V59.9999H33.1888V52.7647L30.8482 32.4498C30.8907 32.4344 30.9326 32.4178 30.974 32.4001L43.8422 48.3516L48.9583 53.4676L51.1297 51.2962L51.1291 51.2956L53.4672 48.9575L48.3512 43.8415L32.2816 31.0923C32.2945 31.0623 32.3067 31.032 32.3184 31.0013L52.7649 33.1888H60V30.1181L60 26.8111H52.7649L32.2923 29.1698C32.2863 29.1553 32.2802 29.1409 32.2739 29.1266L48.3514 16.1568L53.4674 11.0408L51.2965 8.86985L51.2968 8.86952L48.9583 6.53106L43.8423 11.6471L30.9918 27.8444C30.9893 27.8433 30.9867 27.8422 30.9842 27.8411L33.1888 7.23512V0H30.1183H30.1179H26.8112Z" fill="#282728"></path></svg>