<svg fill="#1A1A1A" xmlns="http://www.w3.org/2000/svg"  viewBox="0 0 100 100" width="100px" height="100px"><path d="M 21 20 C 15.488666 20 11 24.488666 11 30 L 11 74 C 11 77.301625 13.698375 80 17 80 L 30 80 A 1.0001 1.0001 0 0 0 31 79 L 31 50.091797 L 49.400391 63.800781 C 49.580391 63.930781 49.79 64 50 64 C 50.21 64 50.409844 63.940547 50.589844 63.810547 L 69 50.515625 L 69 79 A 1.0001 1.0001 0 0 0 70 80 L 83 80 C 86.301625 80 89 77.301625 89 74 L 89 30 C 89 24.488666 84.511334 20 79 20 L 78.990234 20 C 76.901015 20 74.776479 20.657697 72.978516 22.011719 L 50 39.328125 L 27.021484 22.011719 C 25.223521 20.657697 23.098985 20 21.009766 20 L 21 20 z M 21 22 L 21.009766 22 C 22.680546 22 24.376323 22.523397 25.818359 23.609375 L 29 26.007812 L 29 46.724609 L 13 34.798828 L 13 30 C 13 25.569334 16.569334 22 21 22 z M 78.990234 22 L 79 22 C 83.430666 22 87 25.569334 87 30 L 87 34.798828 L 71 46.724609 L 71 26.007812 L 74.181641 23.609375 C 75.623677 22.523397 77.319454 22 78.990234 22 z M 30 26.759766 L 49.263672 41.277344 A 1.0001 1.0001 0 0 0 49.951172 41.585938 A 1.0001 1.0001 0 0 0 50.001953 41.587891 A 1.0001 1.0001 0 0 0 50.728516 41.283203 L 70 26.759766 L 70 47.322266 L 50.009766 61.759766 L 30 47.320312 L 30 26.759766 z M 66.509766 33.275391 A 0.50005 0.50005 0 0 0 66.199219 33.380859 L 60.279297 37.839844 A 0.50058879 0.50058879 0 1 0 60.882812 38.638672 L 66.800781 34.179688 A 0.50005 0.50005 0 0 0 66.509766 33.275391 z M 13 36.046875 L 29 47.972656 L 29 48.794922 L 29 49 L 29 78 L 17 78 C 14.779625 78 13 76.220375 13 74 L 13 36.046875 z M 87 36.046875 L 87 74 C 87 76.220375 85.220375 78 83 78 L 71 78 L 71 49.070312 L 71 48.535156 A 0.50005 0.50005 0 0 0 71 48.5 L 71 47.972656 L 87 36.046875 z M 58.992188 38.939453 A 0.50005 0.50005 0 0 0 58.681641 39.044922 L 56.904297 40.382812 A 0.50005 0.50005 0 1 0 57.505859 41.181641 L 59.283203 39.84375 A 0.50005 0.50005 0 0 0 58.992188 38.939453 z M 42.474609 40.056641 A 0.50005 0.50005 0 0 0 42.199219 40.958984 L 44.246094 42.501953 A 0.50005 0.50005 0 1 0 44.847656 41.703125 L 42.800781 40.160156 A 0.50005 0.50005 0 0 0 42.474609 40.056641 z M 55.617188 41.482422 A 0.50005 0.50005 0 0 0 55.306641 41.585938 L 51.96875 44.101562 A 0.50005 0.50005 0 1 0 52.570312 44.898438 L 55.908203 42.384766 A 0.50005 0.50005 0 0 0 55.617188 41.482422 z M 46.119141 42.800781 A 0.50005 0.50005 0 0 0 45.84375 43.705078 L 48.757812 45.898438 A 0.50005 0.50005 0 1 0 49.359375 45.101562 L 46.445312 42.90625 A 0.50005 0.50005 0 0 0 46.119141 42.800781 z M 16.492188 43.992188 A 0.50005 0.50005 0 0 0 16 44.5 L 16 51.5 A 0.50005 0.50005 0 1 0 17 51.5 L 17 44.5 A 0.50005 0.50005 0 0 0 16.492188 43.992188 z M 16.492188 53.992188 A 0.50005 0.50005 0 0 0 16 54.5 L 16 55.5 A 0.50005 0.50005 0 1 0 17 55.5 L 17 54.5 A 0.50005 0.50005 0 0 0 16.492188 53.992188 z M 16.492188 57.992188 A 0.50005 0.50005 0 0 0 16 58.5 L 16 60.5 A 0.50005 0.50005 0 1 0 17 60.5 L 17 58.5 A 0.50005 0.50005 0 0 0 16.492188 57.992188 z M 16.492188 62.992188 A 0.50005 0.50005 0 0 0 16 63.5 L 16 73.5 C 16 74.322531 16.677469 75 17.5 75 L 24.5 75 A 0.50005 0.50005 0 1 0 24.5 74 L 17.5 74 C 17.218531 74 17 73.781469 17 73.5 L 17 63.5 A 0.50005 0.50005 0 0 0 16.492188 62.992188 z"/></svg>