<svg aria-hidden="true" xmlns="http://www.w3.org/2000/svg" viewBox="0 0 360 120"><g fill="currentColor" fill-rule="nonzero"><path d="M0 82.8v-10h35.8v10h-13v36.4H13V82.8H0zm30.4 36.4v-2.5h.8v-2.5h.8v-2.5h.8v-2.5h.8v-2.4h.9v-2.5h.8v-2.5h.8v-2.5h.8v-2.5h.8v-2.5h.9V92h.8v-2.5h.8v-2.5h.8v-2.5h.8V82h.8v-2.5h.8V77h.8v-2.5h.9v-1.7h13.7v1.7h.9V77h.8v2.4h.8V82h.8v2.5h.8V87h.8v2.5h.8v2.5h.8v2.4h.9v2.5h.8v2.5h.8v2.5h.8v2.5h.8v2.5h.8v2.4h.8v2.5h.8v2.5h.8v2.5h.9v2.5H62.9v-2.5h-.8v-2.5h-.8v-2.5H42.6v2.5h-.8v2.5h-.9v2.5H30.4zm15.4-17.4H58v-1.7h-.8v-2.4h-.8v-2.5h-.8v-2.5h-.8v-2.4H54v-2.6h-.8v-2.5h-.8v-2.4h-.9v2.4h-.8v2.5h-.8v2.6H49v2.4h-.8v2.5h-.8v2.5h-.9v2.5h-.8v1.6zm30.8 17.4V72.8h9.8V91h.8v-.7h.8v-.9h.8v-.8h.9v-.8h.8v-.9h.8v-.8h.8v-.9h.9v-.8h.8v-.8h.8v-.8h.8v-.9h.8v-.8h.8v-.9h.8v-.8h.8v-.8h.9v-.8h.8V77h.8V76h.8v-.8h.8v-.8h.8v-.8h.8v-.9h12.2v1.7h-.8v.8h-.8v.8h-.8v.9h-.8v.8h-.8v.8h-.8v.8h-.9v.9h-.8v.8h-.8v.8h-.8v.8h-.8v.8h-.8v.9h-.9v.8h-.8v.8h-.8v.8h-.8v.9h-.9v.8h-.8v.8h-.8v1h-.8v.8h-.8v.8h-.8v.8h-.8v.9H97v.7H96v.9h-.8v1.6h.9v.9h.8v.8h.8v.8h.8v.8h.8v.9h.8v.8h.8v.8h.8v.8h.9v.9h.8v.8h.8v.8h.8v.9h.8v.8h.8v.9h.8v.8h.8v.8h.9v.8h.8v.8h.8v.8h.8v.9h.8v.8h.9v.8h.8v.9h.8v.8h.8v.8h.8v1.7h-12.2v-.9h-.8v-.8h-.8v-.8h-.9v-.8h-.8v-.9h-.8v-.8h-.8v-.8h-.8v-.8h-.8v-.9H97v-.8h-.8v-.8h-.9v-.9h-.8v-.8h-.8v-.8H93v-.8h-.8v-.8h-.8v-.9h-.8v-.8h-.8v-.8h-.8v-.8H88v-.9h-.8v-.8h-.9v18.2h-9.8zm42.4 0V72.8h32.5v10h-22.7V91h19.5v10h-19.5v8.2h22.8v10H119zm36-13.3V86.1h.7v-2.5h.9v-1.7h.8v-1.6h.8v-.9h.9v-.8h.8v-.8h.8V77h.8V76h.8v-.8h.8v-.8h1.7v-.8h1.6v-.9h2.4V72h14.7v.8h2.4v.9h1.6v.8h1.6v.8h.9v.8h.8v.9h.8v.8h.8v.8h.8v.8h.8v.9h.8v1.6h.8v1.7h.9V86h.8v19.8h-.8v2.5h-.9v1.7h-.8v1.6h-.8v.8h-.8v.9h-.8v.8h-.8v.8h-.8v.9h-.8v.8h-.9v.8h-1.6v.8H186v.9h-2.4v.8h-14.7v-.8h-2.4v-.9h-1.6v-.8H163v-.8h-.8v-.8h-.8v-.9h-.8v-.8h-.8v-.8h-.8v-.8h-.8v-.9h-.9v-1.6h-.8v-1.7h-.8V106h-.9zm9.7-2.5h.8v1.7h.8v1.6h.8v1h.8v.8h1.7v.8h1.6v.8h9.8v-.8h1.6v-.8h1.7v-.9h.8v-.8h.8v-1.7h.9v-1.6h.8v-15h-.8V87h-.9v-1.7h-.8v-.8h-.8v-.8h-1.6v-.8H181v-.9h-9.7v.9h-1.7v.8H168v.8h-.8v.8h-.8V87h-.8v1.6h-.8l-.1 15zm57 15.8l4.7-16.4c3.7-12.7 9.6-29 11.6-30h-14c2.4 2.5 3.3 6.6 3.3 11.6 0 8-2.3 18-4.4 25.9L213.8 81c-.7-1.9-1.2-4-1.3-6a3 3 0 01.7-2.3h-16.1c2 1 3.2 4.9 4.3 8.3l11.5 38h8.8zm19.7 0V72.8h32.5v10h-22.7V91h19.5v10h-19.5v8.2H274v10h-32.6zm38.5 0V72.8H306v.8h2.4v.9h1.6v.8h.8v.8h.8v.9h.9v.8h.8v.8h.8v1.7h.8v1.6h.8V91h-.8v1.7h-.8v1.6h-.8v.9h-.8v.8h-.9v.8h.9v.9h.8v1.6h.8v1.7h.8v18.2h-9.7v-15h-.8v-1.6h-.8v-.8h-.8v-.8h-13v18.2h-9.9zm9.9-28.2h14.6v-.7h.9v-.9h.8v-5h-1v-.8h-.7v-.8h-14.6V91zm59.3-3l7.7-13.7c-.6.4-1.4.6-2 .6-3.7 0-10-2.9-17.7-2.9-9.4 0-17.2 4.7-17.2 14 0 5 3.1 8.4 7.5 10.9 9.8 5.7 25.7 7.8 25.7 15.2 0 2-1.6 4.1-5.3 4.1-7.6 0-20.4-5.6-25-15.2a9.5 9.5 0 00-3.4 7c0 5.7 5.5 11.9 19.4 11.9 14.1 0 19.2-7.5 19.2-15.7 0-17.6-32.3-15.5-32.3-25.8 0-2 2.2-4 6-4 8 0 14.7 6.2 17.4 13.5z"></path><path d="M0 62V16h26.2v.8h2.4v.8h1.7v.9h.8v.8h.8v.8h.8v.8h.8v.8h.9v1.7h.8V25h.8V35h-.8v1.6h-.8v1.7h-.9v.8h-.8v.8H32v.8h-.8v.9h-.8v.8h-1.7v.8h-2.4v.8H9.8V62H0zm9.8-28h14.7v-.8h.9v-.8h.8v-4.9h-.8v-.8h-.9v-.8H9.8V34z"></path><path d="M38 62V16h9.9v36.1H71V62z"></path><path d="M97.7 17.6c-4 0-9.9-2.6-13.8-2.6-1.7 0-2.9.8-2.9 2 0 3.4 9.4 4.5 9.4 7.6 0 4.3-10.8 2.8-10.8 8.5 0 4 8.8 2 8.8 5.3 0 3.2-11.2.6-11.2 5.7 0 4.8 8.7 4.5 8.7 7.9 0 4-9.9-1.2-9.9 6 0 3 2.9 5 7.1 5 4.7 0 7.8-2.3 7.8-5.8 0-4.5-2.9-7.3-2.9-10.6 0-3 4-5 9.8-5 5.8 0 9.6 2 9.6 5 0 3.3-2.8 6-2.8 10.6 0 3.5 3.3 5.8 8.3 5.8 4.2 0 7.1-2 7.1-5 0-7.2-10.2-2-10.2-6 0-3.4 8.4-3.4 8.4-8 0-4.8-11.1-2.4-11.1-5.6 0-3.3 8.7-1.5 8.7-5.3 0-5.6-10.6-4.1-10.6-8.2 0-3.2 9.2-4.4 9.2-8 0-1.1-1.1-1.9-2.9-1.9-4 0-9.8 2.6-13.8 2.6zm0 2.7c2.9 0 4.8.9 4.8 2.4 0 2-3 2-3 4.2s4.8 3.6 4.8 6.6c0 2.7-2.6 5.4-6.6 5.4-4 0-6.8-2.9-6.8-5.8s5-4 5-6.2c0-2.3-3.6-2.3-3.6-4.2 0-1.5 2.2-2.4 5.4-2.4z"></path><path d="M117 17.6V16h10v.8h.8v1.7h.9v1.6h.8v1.6h.8v1.7h.9V25h.8v1.7h.8v1.6h.9V30h.8v1.6h.8v1.6h.9v1.7h1.6v-1.7h.9v-1.6h.8V30h.8v-1.7h.9v-1.6h.8V25h.8v-1.6h.9v-1.7h.8v-1.6h.8v-1.6h.9v-1.7h.8V16h10v1.6h-.8v1.7h-.9v1.6h-.8v1.7h-.8v1.6h-.9v1.7h-.8v1.6h-.8v1.6h-.9v1.7h-.8v1.6h-.8v1.7h-.9v1.6h-.8v1.7h-.8V39h-.9v1.6h-.8v1.7h-.8v1.6h-.9v1.7h-.8V62h-10V45.6h-.8v-1.7h-.9v-1.6h-.8v-1.7h-.8V39h-.9v-1.6h-.8v-1.7h-.8v-1.6h-.9v-1.7h-.8v-1.6h-.8v-1.7h-.9v-1.6h-.8v-1.6h-.8v-1.7h-.9v-1.6h-.8v-1.7h-.8v-1.6h-.9v-1.7z"></path><path d="M160 62V16h9.9v36.1H193V62z"></path><path d="M197 62V16h10v46z"></path><path d="M240.3 30l7.5-13.7c-.6.4-1.2.5-2 .5-3.6 0-9.8-2.8-17.4-2.8-9.2 0-17 4.7-17 14.1 0 4.9 3.2 8.3 7.4 10.8 9.7 5.8 25.4 8 25.4 15.4 0 2-1.6 4-5.2 4-7.5 0-20.2-5.6-24.8-15.3a9.6 9.6 0 00-3.2 7c0 5.8 5.4 12 19 12 14 0 19-7.5 19-15.7 0-17.6-31.8-15.6-31.8-25.9 0-2 2.2-4 5.9-4 8 0 14.5 6.2 17.2 13.6z"></path><path d="M251 25.9V16h36v9.9h-13.1V62h-9.8V25.9z"></path></g></svg>