<svg xmlns="http://www.w3.org/2000/svg" xmlns:xlink="http://www.w3.org/1999/xlink" width="500" zoomAndPan="magnify" viewBox="0 0 375 374.999991" height="500" preserveAspectRatio="xMidYMid meet" version="1.0"><defs><g/><clipPath id="0495ca4d3b"><path d="M 75 51 L 129 51 L 129 105 L 75 105 Z M 75 51 " clip-rule="nonzero"/></clipPath><clipPath id="05ebc9fe3c"><path d="M 63.613281 75.296875 L 104.671875 40.222656 L 139.742188 81.285156 L 98.683594 116.355469 Z M 63.613281 75.296875 " clip-rule="nonzero"/></clipPath><clipPath id="7e1ea766c8"><path d="M 63.613281 75.296875 L 104.671875 40.222656 L 139.742188 81.285156 L 98.683594 116.355469 Z M 63.613281 75.296875 " clip-rule="nonzero"/></clipPath><clipPath id="6fe375a6ec"><path d="M 63.613281 75.296875 L 104.671875 40.222656 L 139.742188 81.285156 L 98.683594 116.355469 Z M 63.613281 75.296875 " clip-rule="nonzero"/></clipPath><clipPath id="5b551615d3"><path d="M 74 51 L 129 51 L 129 106 L 74 106 Z M 74 51 " clip-rule="nonzero"/></clipPath><clipPath id="97c86af6e7"><path d="M 63.613281 75.296875 L 104.671875 40.222656 L 139.742188 81.285156 L 98.683594 116.355469 Z M 63.613281 75.296875 " clip-rule="nonzero"/></clipPath><clipPath id="5b839e8f44"><path d="M 63.613281 75.296875 L 104.671875 40.222656 L 139.742188 81.285156 L 98.683594 116.355469 Z M 63.613281 75.296875 " clip-rule="nonzero"/></clipPath><clipPath id="a7ae6daf2d"><path d="M 63.613281 75.296875 L 104.671875 40.222656 L 139.742188 81.285156 L 98.683594 116.355469 Z M 63.613281 75.296875 " clip-rule="nonzero"/></clipPath><clipPath id="4c050b1219"><path d="M 84.246094 59.335938 L 108.199219 59.335938 L 108.199219 85.535156 L 84.246094 85.535156 Z M 84.246094 59.335938 " clip-rule="nonzero"/></clipPath><clipPath id="898afc5520"><path d="M 96.222656 59.335938 C 89.609375 59.335938 84.246094 65.144531 84.246094 72.3125 C 84.246094 79.476562 89.609375 85.289062 96.222656 85.289062 C 102.839844 85.289062 108.199219 79.476562 108.199219 72.3125 C 108.199219 65.144531 102.839844 59.335938 96.222656 59.335938 " clip-rule="nonzero"/></clipPath></defs><rect x="-37.5" width="450" fill="#ffffff" y="-37.499999" height="449.999989" fill-opacity="1"/><rect x="-37.5" width="450" fill="#ffffff" y="-37.499999" height="449.999989" fill-opacity="1"/><rect x="-37.5" width="450" fill="#ffffff" y="-37.499999" height="449.999989" fill-opacity="1"/><g clip-path="url(#0495ca4d3b)"><g clip-path="url(#05ebc9fe3c)"><g clip-path="url(#7e1ea766c8)"><g clip-path="url(#6fe375a6ec)"><path fill="#ffffff" d="M 118.863281 98.410156 C 107.753906 107.902344 91.050781 106.585938 81.558594 95.476562 C 72.066406 84.363281 73.382812 67.660156 84.492188 58.167969 C 95.605469 48.679688 112.308594 49.992188 121.800781 61.105469 C 131.292969 72.21875 129.976562 88.917969 118.863281 98.410156 Z M 118.863281 98.410156 " fill-opacity="1" fill-rule="nonzero"/></g></g></g></g><g clip-path="url(#5b551615d3)"><g clip-path="url(#97c86af6e7)"><g clip-path="url(#5b839e8f44)"><g clip-path="url(#a7ae6daf2d)"><path fill="#545454" d="M 119.214844 98.820312 C 116.445312 101.1875 113.292969 102.941406 109.84375 104.035156 C 106.515625 105.085938 103.054688 105.484375 99.5625 105.207031 C 96.066406 104.933594 92.710938 104 89.585938 102.441406 C 86.355469 100.824219 83.515625 98.597656 81.148438 95.828125 C 78.78125 93.054688 77.027344 89.902344 75.9375 86.457031 C 74.882812 83.128906 74.488281 79.667969 74.761719 76.171875 C 75.035156 72.675781 75.96875 69.320312 77.53125 66.199219 C 79.144531 62.964844 81.371094 60.125 84.144531 57.757812 C 86.914062 55.390625 90.066406 53.636719 93.515625 52.546875 C 96.84375 51.492188 100.300781 51.097656 103.796875 51.371094 C 107.292969 51.648438 110.648438 52.578125 113.769531 54.140625 C 117.003906 55.757812 119.84375 57.984375 122.210938 60.753906 C 124.578125 63.523438 126.332031 66.675781 127.421875 70.125 C 128.476562 73.453125 128.875 76.914062 128.597656 80.410156 C 128.324219 83.902344 127.390625 87.257812 125.828125 90.382812 C 124.210938 93.617188 121.988281 96.453125 119.214844 98.820312 Z M 84.84375 58.578125 C 82.183594 60.851562 80.046875 63.578125 78.496094 66.683594 C 76.996094 69.679688 76.101562 72.902344 75.835938 76.257812 C 75.574219 79.617188 75.953125 82.9375 76.964844 86.132812 C 78.011719 89.4375 79.695312 92.464844 81.96875 95.128906 C 84.242188 97.789062 86.96875 99.925781 90.070312 101.476562 C 93.070312 102.976562 96.289062 103.871094 99.648438 104.136719 C 103.003906 104.398438 106.324219 104.019531 109.519531 103.007812 C 112.828125 101.960938 115.855469 100.277344 118.515625 98.003906 C 121.179688 95.730469 123.3125 93.003906 124.867188 89.902344 C 126.363281 86.902344 127.261719 83.683594 127.523438 80.324219 C 127.789062 76.96875 127.410156 73.648438 126.398438 70.449219 C 125.347656 67.144531 123.664062 64.117188 121.390625 61.457031 C 119.121094 58.792969 116.394531 56.65625 113.289062 55.105469 C 110.292969 53.605469 107.070312 52.710938 103.714844 52.449219 C 100.355469 52.183594 97.035156 52.5625 93.839844 53.574219 C 90.53125 54.625 87.503906 56.308594 84.84375 58.578125 Z M 87.492188 71.753906 C 86.5 72.601562 87.589844 75.507812 89.929688 78.246094 C 92.265625 80.980469 94.964844 82.515625 95.957031 81.667969 C 96.949219 80.816406 95.859375 77.914062 93.519531 75.175781 C 91.183594 72.4375 88.484375 70.90625 87.492188 71.753906 Z M 97.441406 63.253906 C 96.449219 64.101562 97.539062 67.007812 99.878906 69.746094 C 102.214844 72.484375 104.914062 74.015625 105.90625 73.167969 C 106.898438 72.320312 105.808594 69.414062 103.472656 66.675781 C 101.132812 63.941406 98.433594 62.40625 97.441406 63.253906 Z M 117.613281 68.257812 C 114.550781 67.34375 113.765625 69.679688 113.765625 69.679688 C 113.617188 70.058594 113.753906 70.273438 113.925781 70.394531 C 114.097656 70.511719 114.320312 70.535156 114.515625 70.472656 C 114.871094 70.359375 115.1875 70.246094 115.472656 70.136719 C 116.5 71.4375 117.234375 72.925781 117.652344 74.566406 C 118.097656 76.304688 118.175781 78.140625 117.886719 80.027344 C 117.597656 81.921875 116.949219 83.765625 115.960938 85.511719 C 114.9375 87.320312 113.59375 88.945312 111.964844 90.335938 C 110.335938 91.726562 108.523438 92.800781 106.574219 93.527344 C 104.695312 94.230469 102.769531 94.582031 100.855469 94.574219 C 98.949219 94.5625 97.144531 94.199219 95.5 93.488281 C 94.007812 92.84375 92.703125 91.941406 91.609375 90.796875 C 92.039062 90.347656 92.34375 89.960938 92.285156 89.820312 C 92.09375 89.335938 90.890625 88.660156 89.070312 91.132812 C 89.070312 91.132812 88.535156 92.128906 89.203125 92.644531 C 89.332031 92.746094 89.515625 92.734375 89.644531 92.628906 C 89.902344 92.40625 90.367188 91.996094 90.839844 91.554688 C 92.03125 92.796875 93.453125 93.777344 95.070312 94.476562 C 96.851562 95.246094 98.796875 95.644531 100.851562 95.652344 C 102.898438 95.660156 104.949219 95.285156 106.949219 94.539062 C 109.015625 93.769531 110.941406 92.628906 112.664062 91.15625 C 114.390625 89.683594 115.816406 87.960938 116.902344 86.039062 C 117.949219 84.179688 118.640625 82.210938 118.953125 80.191406 C 119.265625 78.160156 119.179688 76.179688 118.695312 74.296875 C 118.261719 72.605469 117.523438 71.0625 116.496094 69.699219 C 117.300781 69.304688 117.648438 68.980469 117.796875 68.746094 C 117.914062 68.5625 117.816406 68.320312 117.613281 68.257812 Z M 117.613281 68.257812 " fill-opacity="1" fill-rule="nonzero"/></g></g></g></g><g clip-path="url(#4c050b1219)"><g clip-path="url(#898afc5520)"><path fill="#ffffff" d="M 84.246094 59.335938 L 108.199219 59.335938 L 108.199219 85.160156 L 84.246094 85.160156 Z M 84.246094 59.335938 " fill-opacity="1" fill-rule="nonzero"/></g></g><g fill="#545454" fill-opacity="1"><g transform="translate(90.075755, 85.301584)"><g><path d="M -0.0078125 0.0078125 L 2.800781 -2.800781 L 2.230469 -4.101562 L 4.917969 -6.792969 L 6.222656 -6.222656 L 9.039062 -9.039062 L 0.0078125 -12.265625 L -3.140625 -9.117188 Z M 1.242188 -6.007812 L -0.0078125 -9.03125 L 0.0078125 -9.046875 L 3.011719 -7.78125 Z M 1.242188 -6.007812 "/></g></g></g><g fill="#545454" fill-opacity="1"><g transform="translate(99.539058, 75.838281)"><g/></g></g><g fill="#545454" fill-opacity="1"><g transform="translate(101.75178, 73.62556)"><g><path d="M 0.425781 -0.425781 L 3.148438 -3.148438 L 1.191406 -5.105469 L 4.679688 -8.597656 L 3.191406 -10.085938 L -0.296875 -6.597656 L -1.105469 -7.40625 L 2.894531 -11.40625 L 1.019531 -13.277344 L -5.703125 -6.554688 Z M 0.425781 -0.425781 "/></g></g></g></svg>