<svg xmlns="http://www.w3.org/2000/svg" xmlns:xlink="http://www.w3.org/1999/xlink" width="500" zoomAndPan="magnify" viewBox="0 0 375 374.999991" height="500" preserveAspectRatio="xMidYMid meet" version="1.0"><defs><clipPath id="834d186665"><path d="M 0 131 L 370 131 L 370 340 L 0 340 Z M 0 131 " clip-rule="nonzero"/></clipPath><clipPath id="09c6c72097"><path d="M 54.175781 391.234375 L -69.320312 182.828125 L 262.96875 -14.078125 L 386.464844 194.328125 Z M 54.175781 391.234375 " clip-rule="nonzero"/></clipPath><clipPath id="620f70730b"><path d="M 262.875 -14.121094 L 386.375 194.285156 L 54.085938 391.195312 L -69.414062 182.789062 Z M 262.875 -14.121094 " clip-rule="nonzero"/></clipPath></defs><g clip-path="url(#834d186665)"><g clip-path="url(#09c6c72097)"><g clip-path="url(#620f70730b)"><path fill="#ff5757" d="M -16.277344 266.910156 C -30.347656 243.167969 -38.3125 214.617188 -48.722656 174.453125 L -49.464844 171.582031 L -43.714844 170.089844 L -42.972656 172.960938 C -25.433594 240.640625 -14.992188 274.671875 30.273438 308.433594 C 63.695312 333.363281 103.714844 340.570312 137.328125 327.710938 C 167.078125 316.332031 187.277344 291.179688 194.210938 256.886719 C 198.589844 235.207031 200.921875 215.113281 202.976562 197.382812 C 206.769531 164.625 209.515625 140.957031 222.789062 133.5 C 229.605469 129.671875 238.664062 130.457031 250.480469 135.902344 C 256.964844 138.890625 263.105469 141.824219 269.039062 144.660156 C 306.054688 162.34375 332.792969 175.121094 364.683594 163.410156 L 367.472656 162.386719 L 369.515625 167.960938 L 366.730469 168.984375 C 332.488281 181.558594 304.796875 168.328125 266.476562 150.019531 C 260.558594 147.191406 254.4375 144.265625 247.992188 141.296875 C 238.027344 136.703125 230.734375 135.847656 225.695312 138.675781 C 215.0625 144.648438 212.332031 168.21875 208.875 198.0625 C 206.808594 215.910156 204.464844 236.136719 200.03125 258.058594 C 192.683594 294.417969 171.164062 321.125 139.449219 333.257812 C 103.921875 346.847656 61.78125 339.34375 26.71875 313.191406 C 7.117188 298.570312 -6.15625 283.984375 -16.277344 266.910156 Z M -16.277344 266.910156 " fill-opacity="1" fill-rule="nonzero"/></g></g></g></svg>