<svg width="213" height="22" viewBox="0 0 213 22" fill="#ff5757" xmlns="http://www.w3.org/2000/svg">
<path fill-rule="evenodd" clip-rule="evenodd" d="M197.662 19.0063L212.226 4.81202L208.96 1.62929L197.662 12.6409L184.731 0.0379261L171.791 12.6496L158.727 0.0551762L145.654 12.6581L132.58 0.0551763L119.507 12.6581L106.434 0.0551745L93.3612 12.6581L80.2881 0.0551766L67.2149 12.6581L54.1418 0.0551767L41.0687 12.6581L27.9956 0.0551768L14.9225 12.6581L3.47326 1.62062L0.225586 4.82069L14.9225 18.9891L27.9956 6.38613L41.0687 18.9891L54.1418 6.38613L67.2149 18.9891L80.2881 6.38613L93.3612 18.9891L106.434 6.38613L119.507 18.9891L132.58 6.38614L145.654 18.9891L158.727 6.38614L171.809 18.9977L184.731 6.40338L197.662 19.0063Z" fill="#7AA74A"/>
</svg>
