<svg width="86" height="140" viewBox="0 0 86 140" fill="none" xmlns="http://www.w3.org/2000/svg">
<path d="M47.0669 139.498C50.8726 139.505 54.5947 138.382 57.7624 136.273C60.9301 134.163 63.401 131.162 64.8627 127.648C66.3245 124.135 66.7115 120.266 65.9744 116.533C65.2374 112.799 63.4096 109.368 60.7223 106.673C58.035 103.978 54.6088 102.141 50.8772 101.393C47.1456 100.646 43.276 101.022 39.7582 102.474C36.2404 103.926 33.2322 106.389 31.1142 109.551C28.9961 112.713 27.8633 116.432 27.8591 120.237C27.8535 125.338 29.8736 130.232 33.4755 133.844C37.0773 137.456 41.9661 139.49 47.0669 139.498Z" fill="#EE761C" stroke="#010101" stroke-width="0.5"/>
<path d="M47.0669 39.4796C50.8726 39.4859 54.5947 38.3632 57.7624 36.2539C60.9301 34.1446 63.401 31.1433 64.8627 27.6295C66.3245 24.1157 66.7115 20.2474 65.9744 16.5137C65.2374 12.7801 63.4096 9.3488 60.7223 6.65404C58.035 3.95928 54.6088 2.122 50.8772 1.37464C47.1456 0.627276 43.276 1.00341 39.7582 2.45541C36.2404 3.90741 33.2322 6.37001 31.1142 9.53185C28.9961 12.6937 27.8633 16.4128 27.8591 20.2185C27.8535 25.3193 29.8736 30.2137 33.4755 33.8255C37.0773 37.4373 41.9661 39.4711 47.0669 39.4796Z" fill="#EE761C" stroke="#010101" stroke-width="0.5"/>
<path d="M65.801 70.5682V35.3292C65.3705 31.6137 63.9686 28.0772 61.7362 25.0762C59.4536 22.1178 59.411 17.6698 59.411 17.6698V11.6414H35.3774C35.3774 11.6414 35.6328 13.5355 35.3774 18.2709C35.122 23.0064 30.8974 28.7848 30.8974 28.7848L26.3374 37.0212L17.4358 54.3881C16.9572 55.4073 16.8934 56.5725 17.2576 57.638C17.6218 58.7034 18.3856 59.5856 19.388 60.0985C20.3903 60.6114 21.5528 60.7148 22.63 60.3869C23.7072 60.0591 24.6148 59.3256 25.1615 58.3412L30.1416 49.328V79.3742C30.1416 80.5567 30.6115 81.6907 31.4476 82.5268C32.2838 83.363 33.418 83.8329 34.6006 83.8329C35.7831 83.8329 36.9171 83.363 37.7532 82.5268C38.5894 81.6907 39.0593 80.5567 39.0593 79.3742V79.3261V84.3701C39.0386 84.9683 39.1385 85.5646 39.3531 86.1233C39.5677 86.6819 39.8928 87.1916 40.3086 87.622C40.7245 88.0525 41.2225 88.395 41.7734 88.6288C42.3243 88.8626 42.9169 88.9829 43.5154 88.9829C44.1138 88.9829 44.7061 88.8626 45.2571 88.6288C45.808 88.395 46.3062 88.0525 46.7221 87.622C47.1379 87.1916 47.463 86.6819 47.6776 86.1233C47.8922 85.5646 47.9921 84.9683 47.9715 84.3701V80.933C48.0232 82.0895 48.5228 83.1806 49.3645 83.9755C50.2062 84.7703 51.324 85.2066 52.4816 85.1921C53.6392 85.1776 54.7457 84.7135 55.5672 83.8978C56.3887 83.0821 56.8609 81.9787 56.8836 80.8212V70.5682C56.8836 71.7508 57.3535 72.885 58.1897 73.7212C59.0258 74.5573 60.1598 75.0269 61.3423 75.0269C62.5249 75.0269 63.6591 74.5573 64.4953 73.7212C65.3315 72.885 65.801 71.7508 65.801 70.5682ZM30.2746 49.0726V49.1098V49.0726Z" fill="#5BD9D6"/>
<path d="M30.1365 49.4238V79.3528C30.1365 80.5354 30.6063 81.6693 31.4425 82.5055C32.2787 83.3417 33.4127 83.8115 34.5952 83.8115V83.8115C35.7773 83.8101 36.9107 83.3398 37.7466 82.5039C38.5825 81.6681 39.0525 80.5349 39.0539 79.3528" stroke="#020303" stroke-width="0.5"/>
<path d="M56.8839 68.3071V70.5419C56.8839 71.7244 57.3537 72.8584 58.1899 73.6945C59.0261 74.5307 60.1601 75.0006 61.3426 75.0006C62.5251 75.0006 63.6593 74.5307 64.4955 73.6945C65.3317 72.8584 65.8013 71.7244 65.8013 70.5419V41.5972C65.8013 37.5056 65.8279 33.0308 64.0614 29.2637C63.242 27.5239 62.2045 25.9012 61.3213 24.1932C60.2975 22.3227 59.6214 20.2818 59.326 18.17C59.0813 16.0417 59.4058 13.7752 59.4058 11.615H35.3722C35.4679 12.9026 35.5319 16.1907 35.5213 16.5312C35.4174 19.1842 34.7614 21.7867 33.5951 24.1719C32.4459 26.6088 30.8976 28.8221 29.5248 31.1366C28.3915 33.0468 27.3966 35.0474 26.3324 36.9894L17.4309 54.3563C17.148 54.8656 16.9704 55.4265 16.9089 56.0058C16.8475 56.5851 16.9033 57.1709 17.0729 57.7282C17.2425 58.2856 17.5226 58.8031 17.8964 59.2499C18.2702 59.6967 18.7301 60.0637 19.2487 60.3291C19.7673 60.5945 20.334 60.7529 20.9151 60.7947C21.4961 60.8365 22.0798 60.7607 22.631 60.5723C23.1823 60.3838 23.69 60.0866 24.1239 59.6978C24.5577 59.309 24.9089 58.8367 25.1566 58.3094L31.4775 46.8699" stroke="#020303" stroke-width="0.5"/>
<path d="M47.9661 80.7947C47.9661 81.9772 48.436 83.1112 49.2721 83.9474C50.1083 84.7836 51.2425 85.2534 52.4251 85.2534V85.2534C53.6076 85.2534 54.7416 84.7836 55.5778 83.9474C56.4139 83.1112 56.8838 81.9772 56.8838 80.7947V51.4775" stroke="#020303" stroke-width="0.5"/>
<path d="M39.054 51.4775V84.3381C39.054 85.5193 39.5232 86.6522 40.3584 87.4874C41.1936 88.3226 42.3263 88.7916 43.5075 88.7916C44.6891 88.7916 45.8223 88.3227 46.6583 87.4877C47.4943 86.6527 47.9647 85.5197 47.9661 84.3381V51.4775" stroke="#020303" stroke-width="0.5"/>
<path d="M61.3637 65.3114C60.1811 65.3114 59.0469 65.7813 58.2107 66.6174C57.3745 67.4536 56.905 68.5876 56.905 69.7701V59.5171C56.8822 58.3596 56.4101 57.2565 55.5886 56.4408C54.767 55.6251 53.6605 55.161 52.5029 55.1465C51.3453 55.132 50.2275 55.5683 49.3858 56.3631C48.5441 57.158 48.0445 58.2489 47.9928 59.4054V55.9682C48.0135 55.3701 47.9133 54.774 47.6987 54.2154C47.4841 53.6567 47.1592 53.1467 46.7434 52.7163C46.3276 52.2859 45.8293 51.9436 45.2784 51.7098C44.7274 51.476 44.1352 51.3555 43.5367 51.3555C42.9382 51.3555 42.3457 51.476 41.7947 51.7098C41.2438 51.9436 40.7455 52.2859 40.3297 52.7163C39.9139 53.1467 39.5891 53.6567 39.3744 54.2154C39.1598 54.774 39.0599 55.3701 39.0806 55.9682V61.0122V60.9644C39.0806 59.7819 38.6108 58.6477 37.7746 57.8115C36.9384 56.9753 35.8044 56.5058 34.6219 56.5058C33.4394 56.5058 32.3051 56.9753 31.469 57.8115C30.6328 58.6477 30.1629 59.7819 30.1629 60.9644V91.0103L25.1828 81.9971C24.6362 81.0127 23.7285 80.2793 22.6513 79.9514C21.5742 79.6236 20.4116 79.7272 19.4093 80.2401C18.4069 80.753 17.6432 81.6352 17.2789 82.7006C16.9147 83.7661 16.9786 84.9313 17.4572 85.9505L26.3587 103.317L30.9184 111.554C30.9184 111.554 35.138 117.327 35.3987 122.067C35.6594 126.808 35.3987 128.697 35.3987 128.697H59.4323V122.669C59.4323 122.669 59.4749 118.221 61.7575 115.262C63.9899 112.261 65.3919 108.725 65.8224 105.009V69.7701C65.8224 68.5876 65.3528 67.4536 64.5166 66.6174C63.6804 65.7813 62.5462 65.3114 61.3637 65.3114ZM30.3066 91.2392V91.2764V91.2392Z" fill="#5BD9D6"/>
<path d="M30.1365 90.8935V60.9645C30.1379 59.7829 30.6083 58.6502 31.4443 57.8152C32.2804 56.9802 33.4136 56.511 34.5952 56.511V56.511C35.7768 56.511 36.91 56.9802 37.7461 57.8152C38.5821 58.6502 39.0525 59.7829 39.0539 60.9645" stroke="#020303" stroke-width="0.5"/>
<path d="M56.8839 72.0101V69.7756C56.8839 68.5931 57.3537 67.4588 58.1899 66.6227C59.0261 65.7865 60.1601 65.3167 61.3426 65.3167C62.5251 65.3167 63.6593 65.7865 64.4955 66.6227C65.3317 67.4588 65.8013 68.5931 65.8013 69.7756V98.7202C65.8013 102.812 65.8279 107.287 64.0614 111.054C63.242 112.794 62.2045 114.416 61.3213 116.124C60.2975 117.995 59.6214 120.035 59.326 122.147C59.0813 124.275 59.4058 126.542 59.4058 128.702H35.3722C35.4679 127.415 35.5319 124.127 35.5213 123.786C35.4174 121.133 34.7614 118.531 33.5951 116.146C32.4459 113.709 30.8976 111.495 29.5248 109.181C28.3915 107.271 27.3966 105.27 26.3324 103.328L17.4309 85.9612C17.148 85.4519 16.9704 84.8907 16.9089 84.3114C16.8475 83.7321 16.9033 83.1463 17.0729 82.589C17.2425 82.0316 17.5226 81.5141 17.8964 81.0673C18.2702 80.6205 18.7301 80.2535 19.2487 79.9881C19.7673 79.7227 20.334 79.5646 20.9151 79.5228C21.4961 79.481 22.0798 79.5565 22.631 79.7449C23.1823 79.9334 23.69 80.2309 24.1239 80.6197C24.5577 81.0084 24.9089 81.4805 25.1566 82.0078L31.4775 93.4473" stroke="#020303" stroke-width="0.5"/>
<path d="M47.9661 59.5227C47.9661 58.3401 48.436 57.2059 49.2721 56.3697C50.1083 55.5335 51.2425 55.064 52.4251 55.064V55.064C53.6076 55.064 54.7416 55.5335 55.5778 56.3697C56.4139 57.2059 56.8838 58.3401 56.8838 59.5227V88.8292" stroke="#020303" stroke-width="0.5"/>
<path d="M39.054 88.829V55.9681C39.054 54.787 39.5232 53.6543 40.3584 52.8191C41.1936 51.9839 42.3263 51.5146 43.5075 51.5146C44.6891 51.5146 45.8223 51.9838 46.6583 52.8188C47.4943 53.6539 47.9647 54.7865 47.9661 55.9681V88.829" stroke="#020303" stroke-width="0.5"/>
<path d="M79.1136 71.9465H85.3761" stroke="#020303" stroke-width="0.5"/>
<path d="M72.6171 88.8877L78.0389 92.0216" stroke="#020303" stroke-width="0.5"/>
<path d="M72.734 55.0052L78.1558 51.8713" stroke="#020303" stroke-width="0.5"/>
<path d="M6.26248 71.9465H0" stroke="#020303" stroke-width="0.5"/>
<path d="M12.7644 55.0052L7.33725 51.8713" stroke="#020303" stroke-width="0.5"/>
<path d="M12.6473 88.8877L7.22015 92.0216" stroke="#020303" stroke-width="0.5"/>
</svg>
