<svg width="102" height="124" viewBox="0 0 102 124" fill="none" xmlns="http://www.w3.org/2000/svg">
<path d="M59.7138 104.851C62.1524 102.816 62.4799 99.1898 60.4452 96.7512C58.4106 94.3126 54.7843 93.9851 52.3457 96.0198L34.1277 111.22C31.6891 113.255 31.3616 116.881 33.3963 119.32C35.4309 121.758 39.0572 122.086 41.4958 120.051L59.7138 104.851Z" fill="#FFE90B" stroke="black" stroke-width="0.5"/>
<path d="M62.4245 97.58C65.3966 96.344 66.8039 92.9326 65.5679 89.9605C64.332 86.9884 60.9208 85.581 57.9487 86.817L23.0292 101.338C20.0571 102.574 18.6497 105.985 19.8856 108.958C21.1216 111.93 24.5329 113.337 27.505 112.101L62.4245 97.58Z" fill="#FFE90B" stroke="black" stroke-width="0.5"/>
<path d="M52.0662 100.564C55.2881 100.854 58.1359 98.4786 58.4269 95.2567C58.7178 92.0348 56.3417 89.187 53.1198 88.896L17.585 85.6871C14.3631 85.3962 11.5155 87.7723 11.2245 90.9942C10.9336 94.2161 13.3095 97.0637 16.5314 97.3546L52.0662 100.564Z" fill="#FFE90B" stroke="black" stroke-width="0.5"/>
<path d="M73.1349 69.2477L59.7917 53.2552C58.7764 52.0389 57.3195 51.2755 55.7415 51.1333C54.1636 50.991 52.5937 51.4816 51.3773 52.4968L51.0272 52.7885C49.8113 53.8039 49.0482 55.2602 48.9051 56.8378C48.762 58.4154 49.2508 59.9851 50.2642 61.2027L54.8771 66.7249C55.8882 67.9353 56.8799 69.1553 57.9007 70.3656C59.2958 72.0184 60.7007 73.3504 61.0167 75.6351C61.149 76.6325 61.0767 77.6464 60.8042 78.615C60.5318 79.5837 60.0648 80.4866 59.4319 81.2689C57.2299 83.9521 52.7869 85.4833 49.428 85.0361C47.3572 84.7639 38.4229 81.2882 38.4035 80.948C38.2236 77.4918 37.9173 75.7126 37.82 72.3732C37.7617 69.7337 37.9755 66.686 36.3957 64.4354C35.7797 63.5561 34.9466 62.8513 33.9773 62.3897C33.008 61.928 31.9356 61.7252 30.8647 61.801C29.7937 61.8769 28.7605 62.2289 27.866 62.8226C26.9714 63.4163 26.2459 64.2314 25.76 65.1888C24.744 67.1769 24.8704 69.5295 25.0211 71.7558C25.3451 76.5908 25.6692 81.426 25.9933 86.2611C26.0856 87.6222 26.2023 89.0562 26.9655 90.1985C28.1807 92.0262 30.3682 92.6971 32.2786 93.4797C34.6507 94.4519 37.0212 95.4241 39.3901 96.3962C44.1247 98.3406 48.8464 100.329 53.555 102.361C55.1561 103.06 56.7157 103.85 58.2264 104.728L58.5617 104.927C62.1248 107.017 65.4316 109.517 68.4149 112.374C71.5794 115.407 69.5864 113.405 72.5273 116.652L75.0211 119.476C76.1796 120.79 77.8125 121.59 79.561 121.701C81.3094 121.811 83.0299 121.223 84.3443 120.064L98.655 107.489C99.9696 106.33 100.77 104.696 100.88 102.946C100.991 101.197 100.402 99.4759 99.2431 98.1607L96.3802 94.9185C86.8576 84.8514 82.1714 79.8738 73.1349 69.2477Z" fill="#FFE90B"/>
<path d="M73.1349 69.2477L59.7917 53.2552C58.7764 52.0389 57.3195 51.2755 55.7415 51.1333C54.1636 50.991 52.5937 51.4816 51.3773 52.4968L51.0272 52.7885C49.8113 53.8039 49.0482 55.2602 48.9051 56.8378C48.762 58.4154 49.2508 59.9851 50.2642 61.2027L54.8771 66.7249C55.8882 67.9353 56.8799 69.1553 57.9007 70.3656C59.2958 72.0184 60.7007 73.3504 61.0167 75.6351C61.149 76.6325 61.0767 77.6464 60.8042 78.615C60.5318 79.5837 60.0648 80.4866 59.4319 81.2689C57.2299 83.9521 52.7869 85.4833 49.428 85.0361C47.3572 84.7639 38.4229 81.2882 38.4035 80.948C38.2236 77.4918 37.9173 75.7126 37.82 72.3732C37.7617 69.7337 37.9755 66.686 36.3957 64.4354C35.7797 63.5561 34.9466 62.8513 33.9773 62.3897C33.008 61.928 31.9356 61.7252 30.8647 61.801C29.7937 61.8769 28.7605 62.2289 27.866 62.8226C26.9714 63.4163 26.2459 64.2314 25.76 65.1888C24.744 67.1769 24.8704 69.5295 25.0211 71.7558C25.3451 76.5908 25.6692 81.426 25.9933 86.2611C26.0856 87.6222 26.2023 89.0562 26.9655 90.1985C28.1807 92.0262 30.3682 92.6971 32.2786 93.4797C34.6507 94.4519 37.0212 95.4241 39.3901 96.3962C44.1247 98.3406 48.8464 100.329 53.555 102.361C55.1561 103.06 56.7157 103.85 58.2264 104.728L58.5617 104.927C62.1248 107.017 65.4316 109.517 68.4149 112.374C71.5794 115.407 69.5864 113.405 72.5273 116.652L75.0211 119.476C76.1796 120.79 77.8125 121.59 79.561 121.701C81.3094 121.811 83.0299 121.223 84.3443 120.064L98.655 107.489C99.9695 106.33 100.77 104.696 100.88 102.946C100.991 101.197 100.402 99.4759 99.2431 98.1607L96.3802 94.9185C86.8576 84.8514 82.1714 79.8738 73.1349 69.2477" stroke="black" stroke-width="0.5"/>
<path d="M41.2225 73.4721C41.4654 74.1494 41.8393 74.7721 42.3229 75.3049C42.8065 75.8377 43.3904 76.2699 44.0411 76.5771C44.6918 76.8843 45.3964 77.0605 46.1151 77.0953C46.8338 77.13 47.5523 77.0229 48.2296 76.7801C48.9069 76.5372 49.5297 76.163 50.0625 75.6795C50.5952 75.1959 51.0277 74.6122 51.3349 73.9615C51.6421 73.3108 51.818 72.606 51.8528 71.8873C51.8876 71.1686 51.7805 70.4502 51.5376 69.7729" fill="#FFE90B"/>
<path d="M41.2225 73.4721C41.4654 74.1494 41.8393 74.7721 42.3229 75.3049C42.8065 75.8377 43.3904 76.2699 44.0411 76.5771C44.6918 76.8843 45.3964 77.0605 46.1151 77.0953C46.8338 77.13 47.5523 77.0229 48.2296 76.7801C48.9069 76.5372 49.5297 76.163 50.0625 75.6795C50.5952 75.1959 51.0277 74.6122 51.3349 73.9615C51.6421 73.3108 51.818 72.606 51.8528 71.8873C51.8876 71.1686 51.7805 70.4502 51.5376 69.7729" stroke="black" stroke-width="0.5"/>
<path d="M48.9079 19.666C46.1929 16.0662 42.3624 13.4665 38.0144 12.2725C31.9917 10.6149 26.2801 11.4072 21.0011 14.7661C18.5193 16.292 16.3958 18.335 14.7751 20.7559C13.1544 23.1768 12.0748 25.9188 11.6098 28.7948C10.7728 33.4394 11.5138 38.2306 13.7146 42.4055C15.1413 45.3722 17.4235 47.844 20.2672 49.5025C22.022 50.5136 23.835 51.4177 25.6482 52.3218C28.7786 53.8822 32.964 55.5156 34.2133 58.6752L40.0804 75.0178L53.3217 70.2734L47.3039 53.5081C46.5796 51.0776 48.4461 47.9179 49.3357 45.4583C50.0113 43.6014 50.7939 41.7785 51.596 39.9702C53.2584 36.2419 53.8225 32.426 52.9038 28.3963C52.2336 25.2266 50.8688 22.2449 48.9079 19.666Z" fill="#EE761C"/>
<path d="M34.5244 38.6479L44.2658 65.7819" stroke="black" stroke-width="0.5"/>
<path d="M48.9664 19.6951C46.2513 16.0953 42.4209 13.4956 38.0729 12.3016C32.0502 10.644 26.3337 11.4313 21.0595 14.7902C18.5795 16.3181 16.4571 18.3618 14.8367 20.7824C13.2162 23.203 12.1357 25.944 11.6682 28.8192C10.8373 33.4639 11.578 38.2531 13.7731 42.4299C15.2084 45.3948 17.4991 47.8616 20.3499 49.5122C22.0998 50.5233 23.9177 51.4273 25.7309 52.3315C28.8613 53.8918 33.0225 55.5252 34.2912 58.6897L40.1583 75.0323L53.3997 70.2831L47.3816 53.5225C46.6573 51.092 48.5288 47.9275 49.4183 45.4727C50.0892 43.611 50.8767 41.7881 51.6739 39.9847C53.3904 36.3794 53.8525 32.3039 52.9865 28.4059C52.3058 25.2412 50.933 22.2664 48.9664 19.6951Z" fill="#EE761C" stroke="#010101" stroke-width="0.5"/>
<path d="M22.9601 6.47836L21.6136 2.72559" stroke="#FFE900" stroke-width="0.5"/>
<path d="M22.9212 6.49276L21.5747 2.73999" stroke="#FFE900" stroke-width="0.5"/>
<path d="M44.5621 7.70787L46.2634 4.10107" stroke="#FFE900" stroke-width="0.5"/>
<path d="M58.202 24.5272L61.9545 23.1807" stroke="#FFE900" stroke-width="0.5"/>
<path d="M34.2521 4.88877L35.1951 1" stroke="#FFE900" stroke-width="0.5"/>
<path d="M53.0494 14.3676L55.6061 11.3101" stroke="#FFE900" stroke-width="0.5"/>
<path d="M7.03079 21.173L3.424 19.4717" stroke="#FFE900" stroke-width="0.5"/>
<path d="M7.19586 42.8286L3.43834 44.1751" stroke="#FFE900" stroke-width="0.5"/>
<path d="M13.1943 12.4428L10.0007 10.051" stroke="#FFE900" stroke-width="0.5"/>
<path d="M4.71203 31.7114L0.794067 30.9775" stroke="#FFE900" stroke-width="0.5"/>
<path d="M35.4769 41.2925C37.3267 40.6288 38.9379 39.4314 40.1071 37.8518C41.2764 36.2723 41.9511 34.3814 42.0456 32.4184C42.1401 30.4554 41.6504 28.5086 40.6383 26.824C39.6263 25.1394 38.1375 23.7926 36.3601 22.9542C34.5826 22.1158 32.5964 21.8233 30.6527 22.1138C28.709 22.4042 26.8951 23.2646 25.4405 24.586C23.9858 25.9074 22.9558 27.6305 22.4804 29.5374C22.0051 31.4443 22.106 33.4493 22.7703 35.2989C23.6608 37.7784 25.4997 39.8028 27.8826 40.9267C30.2654 42.0507 32.9971 42.1823 35.4769 41.2925Z" fill="#6EC5CA" stroke="black" stroke-width="0.5"/>
<path d="M34.5243 38.6481C35.8498 38.1724 37.0045 37.3145 37.8425 36.1827C38.6805 35.0509 39.1641 33.696 39.2322 32.2894C39.3002 30.8828 38.9496 29.4875 38.2248 28.2801C37.5 27.0726 36.4336 26.1073 35.1602 25.5059C33.8867 24.9045 32.4635 24.6943 31.0706 24.9016C29.6777 25.1089 28.3775 25.7246 27.3344 26.6708C26.2914 27.617 25.5523 28.8511 25.2106 30.2173C24.8689 31.5835 24.9399 33.0202 25.4147 34.3461C26.0528 36.1241 27.3708 37.576 29.079 38.3827C30.7871 39.1894 32.7458 39.2848 34.5243 38.6481Z" fill="#FFE90B" stroke="black" stroke-width="0.5"/>
<path d="M37.5477 68.018L50.9592 63.2107" stroke="black" stroke-width="0.5"/>
<path d="M38.8214 71.5616L52.2327 66.7493" stroke="black" stroke-width="0.5"/>
</svg>
