<svg width="71" height="117" viewBox="0 0 71 117" fill="none" xmlns="http://www.w3.org/2000/svg">
<path d="M50.3832 42.72L69.3399 82.5525C69.315 91.5127 65.7449 100.099 59.4097 106.435C53.0744 112.772 44.489 116.344 35.5287 116.37C26.5679 116.344 17.9816 112.772 11.6453 106.436C5.30902 100.1 1.73763 91.5133 1.71107 82.5525L20.3593 49.6095" fill="#6EC5CA"/>
<path d="M50.3832 42.72L69.3399 82.5525C69.315 91.5127 65.7449 100.099 59.4097 106.435C53.0744 112.772 44.489 116.344 35.5287 116.37V116.37C26.5679 116.344 17.9816 112.772 11.6453 106.436C5.30902 100.1 1.73763 91.5133 1.71107 82.5525L20.3593 49.6095" stroke="#020303" stroke-width="0.5"/>
<path d="M43.6763 1.02515H43.67C38.8192 1.02515 34.8869 4.9575 34.8869 9.80829V24.0148C34.8869 28.8656 38.8192 32.798 43.67 32.798H43.6763C48.5271 32.798 52.4595 28.8656 52.4595 24.0148V9.80829C52.4595 4.9575 48.5271 1.02515 43.6763 1.02515Z" fill="#FFE90B" stroke="#020303" stroke-width="0.5"/>
<path d="M52.4593 39.9643V9.80831C52.4593 7.4722 53.3873 5.23183 55.0392 3.57995C56.6911 1.92807 58.9315 1 61.2676 1C63.6037 1 65.8441 1.92807 67.4959 3.57995C69.1478 5.23183 70.0759 7.4722 70.0759 9.80831V22.9326C70.0759 34.9685 69.3837 80.6146 69.3837 80.6146C69.3671 86.2295 67.1294 91.6096 63.1591 95.58C59.1887 99.5504 53.8086 101.788 48.1936 101.805H22.9515C17.336 101.788 11.9553 99.5505 7.9839 95.5803C4.01254 91.6101 1.77318 86.2301 1.75492 80.6146C1.75492 80.6146 1.04404 27.8842 1.04404 13.8601" fill="#FFE90B"/>
<path d="M52.4593 39.9643V9.80831C52.4593 7.4722 53.3873 5.23183 55.0392 3.57995C56.6911 1.92807 58.9315 1 61.2676 1V1C63.6037 1 65.8441 1.92807 67.4959 3.57995C69.1478 5.23183 70.0759 7.4722 70.0759 9.80831V22.9326C70.0759 34.9685 69.3837 80.6146 69.3837 80.6146C69.3671 86.2295 67.1294 91.6097 63.1591 95.58C59.1887 99.5504 53.8086 101.788 48.1936 101.805H22.9515C17.336 101.788 11.9553 99.5505 7.9839 95.5803C4.01254 91.6101 1.77318 86.2301 1.75492 80.6146C1.75492 80.6146 1.04404 27.8842 1.04404 13.8601" stroke="#020303" stroke-width="0.5"/>
<path d="M17.3143 12.608C17.3143 8.10123 13.6622 4.44775 9.15713 4.44775C4.65207 4.44775 1 8.10123 1 12.608V28.0603C1 32.5671 4.65207 36.2206 9.15713 36.2206C13.6622 36.2206 17.3143 32.5671 17.3143 28.0603V12.608Z" fill="#FFE90B" stroke="#020303" stroke-width="0.5"/>
<path d="M26.1036 2.24561H26.0973C21.2465 2.24561 17.3142 6.17795 17.3142 11.0288V25.2353C17.3142 30.0861 21.2465 34.0185 26.0973 34.0185H26.1036C30.9544 34.0185 34.8868 30.0861 34.8868 25.2353V11.0288C34.8868 6.17795 30.9544 2.24561 26.1036 2.24561Z" fill="#FFE90B" stroke="#020303" stroke-width="0.5"/>
<path d="M54.9007 41.6315H36.9756C34.5966 41.6299 32.3154 40.684 30.6333 39.0018C28.9511 37.3196 28.0055 35.0385 28.0038 32.6595C28.0038 31.4813 28.2359 30.3146 28.6868 29.2261C29.1377 28.1376 29.7983 27.1487 30.6314 26.3156C31.4645 25.4825 32.4537 24.8216 33.5422 24.3707C34.6307 23.9198 35.7974 23.6877 36.9756 23.6877H61.0915C63.475 23.7077 65.7532 24.6719 67.4268 26.3691C69.1004 28.0663 70.0328 30.358 70.0194 32.7415" fill="#FFE90B"/>
<path d="M41.5497 67.5468C40.2439 65.0319 39.5642 62.2391 39.5679 59.4054C39.5679 49.6156 45.0541 41.6819 54.8439 41.6819" fill="#FFE90B"/>
<path d="M41.5497 67.5468C40.2439 65.0319 39.5642 62.2391 39.5679 59.4054C39.5679 49.6156 45.0541 41.6819 54.8439 41.6819" stroke="#020303" stroke-width="0.5"/>
<path d="M54.8439 41.6316H36.9379C35.7597 41.6316 34.593 41.3995 33.5045 40.9486C32.416 40.4977 31.4268 39.8368 30.5937 39.0037C29.7606 38.1706 29.0999 37.1814 28.649 36.0929C28.1982 35.0044 27.9661 33.8377 27.9661 32.6595C27.9653 31.4811 28.1966 30.3141 28.6472 29.2252C29.0978 28.1363 29.7586 27.1471 30.5918 26.3138C31.4251 25.4805 32.4147 24.8194 33.5036 24.3688C34.5925 23.9182 35.7594 23.6869 36.9379 23.6877H61.0474C66.0052 23.6877 69.969 28.0225 69.969 32.9741" stroke="#020303" stroke-width="0.5"/>
</svg>
